<?xml version="1.0" encoding="utf-8"?>
<!-- Generator: Adobe Illustrator 23.0.0, SVG Export Plug-In . SVG Version: 6.00 Build 0)  -->
<svg version="1.1" id="Layer_1" xmlns="http://www.w3.org/2000/svg" xmlns:xlink="http://www.w3.org/1999/xlink" x="0px" y="0px"
	 viewBox="0 0 960.2 472" style="enable-background:new 0 0 960.2 472;" xml:space="preserve">
<style type="text/css">
	.st0{stroke:#EEEEEE;}
	.st1{clip-path:url(#SVGID_2_);}
	.st2{fill:none;stroke:#518E0C;stroke-miterlimit:2;}
	.st3{fill:#518E0C;}
	.st4{fill:none;stroke:#A50000;stroke-miterlimit:2;}
	.st5{fill:#A50000;}
	.st6{fill:none;stroke:#9840BC;stroke-miterlimit:2;}
	.st7{fill:#9840BC;}
	.st8{fill:none;stroke:#0DBCBC;stroke-miterlimit:2;}
	.st9{fill:#0DBCBC;}
	.st10{fill:none;stroke:#FFA515;stroke-miterlimit:2;}
	.st11{fill:#FFA515;}
	.st12{fill:none;stroke:#DB1F98;stroke-miterlimit:2;}
	.st13{fill:#DB1F98;}
	.st14{fill:none;stroke:#778276;stroke-miterlimit:2;}
	.st15{fill:#778276;}
	.st16{fill:none;stroke:#0000FF;stroke-miterlimit:2;}
	.st17{fill:#0000FF;}
	.st18{fill:none;stroke:#804000;stroke-miterlimit:2;}
	.st19{fill:#804000;}
	.st20{fill:none;stroke:#80CCCC;stroke-miterlimit:2;}
	.st21{fill:#80CCCC;}
	.st22{fill:none;stroke:#80EECC;stroke-miterlimit:2;}
	.st23{fill:#80EECC;}
	.st24{fill:none;stroke:#EE8066;stroke-miterlimit:2;}
	.st25{fill:#EE8066;}
	.st26{fill:none;stroke:#80FFAA;stroke-miterlimit:2;}
	.st27{fill:#80FFAA;}
	.st28{fill:none;stroke:#66FFFF;stroke-miterlimit:2;}
	.st29{fill:#66FFFF;}
	.st30{fill:none;stroke:#3377FF;stroke-miterlimit:2;}
	.st31{fill:#3377FF;}
	.st32{fill:none;stroke:#B3BFFF;stroke-miterlimit:2;}
	.st33{fill:#B3BFFF;}
	.st34{fill:none;stroke:#AA80FF;stroke-miterlimit:2;}
	.st35{fill:#AA80FF;}
	.st36{fill:none;stroke:#FF19B3;stroke-miterlimit:2;}
	.st37{fill:#FF19B3;}
	.st38{fill:none;stroke:#006400;stroke-miterlimit:2;}
	.st39{fill:#006400;}
	.st40{fill:none;stroke:#404040;stroke-width:1.5;stroke-miterlimit:2;}
	.st41{fill:none;stroke:#404040;stroke-width:1.5;stroke-miterlimit:2;stroke-dasharray:6.8298,6.8298;}
	.st42{fill:none;stroke:#404040;stroke-width:1.5;stroke-miterlimit:2;stroke-dasharray:6.9822,6.9822;}
	.st43{fill:none;stroke:#404040;stroke-width:1.5;stroke-miterlimit:2;stroke-dasharray:7.0895,7.0895;}
	.st44{fill:none;stroke:#404040;stroke-width:1.5;stroke-miterlimit:2;stroke-dasharray:7.2206,7.2206;}
	.st45{fill:none;stroke:#404040;stroke-width:1.5;stroke-miterlimit:2;stroke-dasharray:7.5247,7.5247;}
	.st46{fill:#404040;stroke:#404040;stroke-miterlimit:2;}
	.st47{fill:none;stroke:#444444;}
	.st48{fill:#444444;}
	.st49{font-family:'Verdana';}
	.st50{font-size:12px;}
	.st51{fill:#FFFFFF;}
	.st52{clip-path:url(#SVGID_4_);}
	.st53{fill-opacity:0;}
	.st54{fill:none;stroke:#518E0C;}
	.st55{fill:none;stroke:#A50000;}
	.st56{fill:none;stroke:#9840BC;}
	.st57{fill:none;stroke:#0DBCBC;}
	.st58{fill:none;stroke:#FFA515;}
	.st59{fill:none;stroke:#DB1F98;}
	.st60{fill:none;stroke:#778276;}
	.st61{fill:none;stroke:#0000FF;}
	.st62{fill:none;stroke:#804000;}
	.st63{fill:none;stroke:#80CCCC;}
	.st64{fill:none;stroke:#80EECC;}
	.st65{fill:none;stroke:#EE8066;}
	.st66{fill:none;stroke:#80FFAA;}
	.st67{fill:none;stroke:#66FFFF;}
	.st68{fill:none;stroke:#3377FF;}
	.st69{fill:none;stroke:#B3BFFF;}
	.st70{fill:none;stroke:#AA80FF;}
	.st71{fill:none;stroke:#FF19B3;}
	.st72{fill:none;stroke:#006400;}
	.st73{fill:none;stroke:#404040;stroke-width:1.5;stroke-dasharray:2;}
	.st74{fill:#404040;stroke:#404040;}
	.st75{fill:#808BA4;}
	.st76{font-size:14px;}
</style>
<g>
	<g>
		<g>
			<path class="st0" d="M78.9,0v420"/>
			<path class="st0" d="M168.5,0v420"/>
			<path class="st0" d="M258.2,0v420"/>
			<path class="st0" d="M347.8,0v420"/>
			<path class="st0" d="M437.5,0v420"/>
			<path class="st0" d="M527.1,0v420"/>
			<path class="st0" d="M616.8,0v420"/>
			<path class="st0" d="M706.4,0v420"/>
			<path class="st0" d="M796.1,0v420"/>
		</g>
		<g>
			<path class="st0" d="M52,368.8h762"/>
			<path class="st0" d="M52,317.6h762"/>
			<path class="st0" d="M52,266.3h762"/>
			<path class="st0" d="M52,215.1h762"/>
			<path class="st0" d="M52,163.9h762"/>
			<path class="st0" d="M52,112.7h762"/>
			<path class="st0" d="M52,61.5h762"/>
			<path class="st0" d="M52,10.2h762"/>
		</g>
	</g>
	<path class="st0" d="M-28-100"/>
	<path class="st0" d="M-28-100"/>
	<g>
		<defs>
			<rect id="SVGID_1_" x="52" width="762" height="420"/>
		</defs>
		<clipPath id="SVGID_2_">
			<use xlink:href="#SVGID_1_"  style="overflow:visible;"/>
		</clipPath>
		<g class="st1">
			<g>
				<g>
					<path class="st2" d="M472,133.3l16.3,48.6l13.7,4.8l0.1,0.4l2,2.7l3.1,5.2l8.3,8.5l20.2,0.5l15.5,5.3l5.9,11.4l16.7,16.5
						l16.4,14.8l3.1,4.5l39.2,58.4l20.2,11.5l6.4,5.3l3.4,0.4l1.3,2.8l13.1,3.5l5.6,15.9l3.8,0.5l2.4,0.9l1,2l0.1,0.1l17,6.4
						l5.9,5.8l3.8,6.4l6.2,12.1l2.4,1.8l1.3,0.9l2.7,5.9l0.4,4.3l1,1.9l6.1,2.8l9.8,0.5l10.7,4.9"/>
				</g>
				<g>
					<path class="st3" d="M473.8,133.3c0,1-0.8,1.8-1.8,1.8s-1.8-0.8-1.8-1.8s0.8-1.8,1.8-1.8S473.8,132.3,473.8,133.3z"/>
					<path class="st3" d="M489.2,179.2c0,1-0.8,1.8-1.8,1.8s-1.8-0.8-1.8-1.8s0.8-1.8,1.8-1.8S489.2,178.2,489.2,179.2z"/>
					<path class="st3" d="M490.1,181.9c0,1-0.8,1.8-1.8,1.8s-1.8-0.8-1.8-1.8s0.8-1.8,1.8-1.8S490.1,180.9,490.1,181.9z"/>
					<path class="st3" d="M503.8,186.7c0,1-0.8,1.8-1.8,1.8s-1.8-0.8-1.8-1.8s0.8-1.8,1.8-1.8S503.8,185.7,503.8,186.7z"/>
					<path class="st3" d="M503.9,187.1c0,1-0.8,1.8-1.8,1.8s-1.8-0.8-1.8-1.8s0.8-1.8,1.8-1.8S503.9,186.1,503.9,187.1z"/>
					<path class="st3" d="M506,189.7c0,1-0.8,1.8-1.8,1.8s-1.8-0.8-1.8-1.8s0.8-1.8,1.8-1.8S506,188.8,506,189.7z"/>
					<path class="st3" d="M508,193.3c0,1-0.8,1.8-1.8,1.8s-1.8-0.8-1.8-1.8s0.8-1.8,1.8-1.8S508,192.3,508,193.3z"/>
					<path class="st3" d="M509.1,194.9c0,1-0.8,1.8-1.8,1.8s-1.8-0.8-1.8-1.8s0.8-1.8,1.8-1.8S509.1,194,509.1,194.9z"/>
					<path class="st3" d="M517.4,203.5c0,1-0.8,1.8-1.8,1.8s-1.8-0.8-1.8-1.8s0.8-1.8,1.8-1.8S517.4,202.5,517.4,203.5z"/>
					<path class="st3" d="M537.7,204c0,1-0.8,1.8-1.8,1.8s-1.8-0.8-1.8-1.8s0.8-1.8,1.8-1.8S537.7,203,537.7,204z"/>
					<path class="st3" d="M553.2,209.3c0,1-0.8,1.8-1.8,1.8c-1,0-1.8-0.8-1.8-1.8s0.8-1.8,1.8-1.8
						C552.4,207.5,553.2,208.3,553.2,209.3z"/>
					<path class="st3" d="M559.1,220.7c0,1-0.8,1.8-1.8,1.8c-1,0-1.8-0.8-1.8-1.8s0.8-1.8,1.8-1.8
						C558.3,218.9,559.1,219.7,559.1,220.7z"/>
					<path class="st3" d="M575.8,237.2c0,1-0.8,1.8-1.8,1.8s-1.8-0.8-1.8-1.8s0.8-1.8,1.8-1.8S575.8,236.2,575.8,237.2z"/>
					<path class="st3" d="M592.3,251.9c0,1-0.8,1.8-1.8,1.8s-1.8-0.8-1.8-1.8s0.8-1.8,1.8-1.8S592.3,251,592.3,251.9z"/>
					<path class="st3" d="M595.4,256.4c0,1-0.8,1.8-1.8,1.8s-1.8-0.8-1.8-1.8s0.8-1.8,1.8-1.8S595.4,255.4,595.4,256.4z"/>
					<path class="st3" d="M634.6,314.8c0,1-0.8,1.8-1.8,1.8s-1.8-0.8-1.8-1.8s0.8-1.8,1.8-1.8S634.6,313.8,634.6,314.8z"/>
					<path class="st3" d="M654.8,326.3c0,1-0.8,1.8-1.8,1.8s-1.8-0.8-1.8-1.8s0.8-1.8,1.8-1.8S654.8,325.3,654.8,326.3z"/>
					<path class="st3" d="M661.2,331.6c0,1-0.8,1.8-1.8,1.8s-1.8-0.8-1.8-1.8s0.8-1.8,1.8-1.8S661.2,330.6,661.2,331.6z"/>
					<path class="st3" d="M664.6,332c0,1-0.8,1.8-1.8,1.8s-1.8-0.8-1.8-1.8s0.8-1.8,1.8-1.8S664.6,331.1,664.6,332z"/>
					<path class="st3" d="M665.1,333c0,1-0.8,1.8-1.8,1.8s-1.8-0.8-1.8-1.8s0.8-1.8,1.8-1.8S665.1,332.1,665.1,333z"/>
					<path class="st3" d="M665.1,333c0,1-0.8,1.8-1.8,1.8s-1.8-0.8-1.8-1.8s0.8-1.8,1.8-1.8S665.1,332.1,665.1,333z"/>
					<path class="st3" d="M665.8,334.8c0,1-0.8,1.8-1.8,1.8s-1.8-0.8-1.8-1.8s0.8-1.8,1.8-1.8S665.8,333.8,665.8,334.8z"/>
					<path class="st3" d="M678.9,338.3c0,1-0.8,1.8-1.8,1.8s-1.8-0.8-1.8-1.8s0.8-1.8,1.8-1.8S678.9,337.4,678.9,338.3z"/>
					<path class="st3" d="M684.4,354.1c0,1-0.8,1.8-1.8,1.8s-1.8-0.8-1.8-1.8s0.8-1.8,1.8-1.8S684.4,353.1,684.4,354.1z"/>
					<path class="st3" d="M684.5,354.2c0,1-0.8,1.8-1.8,1.8s-1.8-0.8-1.8-1.8s0.8-1.8,1.8-1.8S684.5,353.2,684.5,354.2z"/>
					<path class="st3" d="M688.4,354.7c0,1-0.8,1.8-1.8,1.8s-1.8-0.8-1.8-1.8s0.8-1.8,1.8-1.8S688.4,353.7,688.4,354.7z"/>
					<path class="st3" d="M690.8,355.6c0,1-0.8,1.8-1.8,1.8s-1.8-0.8-1.8-1.8s0.8-1.8,1.8-1.8S690.8,354.6,690.8,355.6z"/>
					<path class="st3" d="M691.8,357.6c0,1-0.8,1.8-1.8,1.8s-1.8-0.8-1.8-1.8s0.8-1.8,1.8-1.8S691.8,356.6,691.8,357.6z"/>
					<path class="st3" d="M691.8,357.7c0,1-0.8,1.8-1.8,1.8s-1.8-0.8-1.8-1.8s0.8-1.8,1.8-1.8S691.8,356.8,691.8,357.7z"/>
					<path class="st3" d="M708.8,364.2c0,1-0.8,1.8-1.8,1.8s-1.8-0.8-1.8-1.8s0.8-1.8,1.8-1.8S708.8,363.2,708.8,364.2z"/>
					<path class="st3" d="M712,366.9c0,1-0.8,1.8-1.8,1.8s-1.8-0.8-1.8-1.8s0.8-1.8,1.8-1.8S712,365.9,712,366.9z"/>
					<path class="st3" d="M714.8,370c0,1-0.8,1.8-1.8,1.8s-1.8-0.8-1.8-1.8s0.8-1.8,1.8-1.8S714.8,369,714.8,370z"/>
					<path class="st3" d="M718.6,376.4c0,1-0.8,1.8-1.8,1.8s-1.8-0.8-1.8-1.8s0.8-1.8,1.8-1.8S718.6,375.4,718.6,376.4z"/>
					<path class="st3" d="M724.8,388.5c0,1-0.8,1.8-1.8,1.8s-1.8-0.8-1.8-1.8s0.8-1.8,1.8-1.8S724.8,387.6,724.8,388.5z"/>
					<path class="st3" d="M727.2,390.3c0,1-0.8,1.8-1.8,1.8s-1.8-0.8-1.8-1.8s0.8-1.8,1.8-1.8S727.2,389.3,727.2,390.3z"/>
					<path class="st3" d="M728.5,391.2c0,1-0.8,1.8-1.8,1.8s-1.8-0.8-1.8-1.8s0.8-1.8,1.8-1.8S728.5,390.2,728.5,391.2z"/>
					<path class="st3" d="M731.2,397c0,1-0.8,1.8-1.8,1.8s-1.8-0.8-1.8-1.8s0.8-1.8,1.8-1.8S731.2,396.1,731.2,397z"/>
					<path class="st3" d="M731.6,401.3c0,1-0.8,1.8-1.8,1.8s-1.8-0.8-1.8-1.8s0.8-1.8,1.8-1.8S731.6,400.4,731.6,401.3z"/>
					<path class="st3" d="M732.6,403.2c0,1-0.8,1.8-1.8,1.8s-1.8-0.8-1.8-1.8s0.8-1.8,1.8-1.8S732.6,402.3,732.6,403.2z"/>
					<path class="st3" d="M732.6,403.3c0,1-0.8,1.8-1.8,1.8s-1.8-0.8-1.8-1.8s0.8-1.8,1.8-1.8S732.6,402.3,732.6,403.3z"/>
					<path class="st3" d="M738.7,406c0,1-0.8,1.8-1.8,1.8s-1.8-0.8-1.8-1.8s0.8-1.8,1.8-1.8S738.7,405,738.7,406z"/>
					<path class="st3" d="M748.5,406.5c0,1-0.8,1.8-1.8,1.8s-1.8-0.8-1.8-1.8s0.8-1.8,1.8-1.8S748.5,405.5,748.5,406.5z"/>
					<path class="st3" d="M759.1,411.4c0,1-0.8,1.8-1.8,1.8s-1.8-0.8-1.8-1.8s0.8-1.8,1.8-1.8S759.1,410.4,759.1,411.4z"/>
				</g>
			</g>
			<g>
				<g>
					<path class="st4" d="M319,132.4l130.7,9.4l15,52.8l2.4,0.3l2.1,3.4l7.6,0.8l3.8,3.9l14.7,2.6l3.4,4.3l11.5,1l3.4,43.9l1.2,2.4
						l1.4,3.1l6.1,2.1l0.5,3.5l4,1.1l11.3,7.8l24,9.6l5,15l20.4,2.8l1,66l110.6,4.1l0.5,10.3"/>
				</g>
				<g>
					<path class="st5" d="M320.7,132.4c0,1-0.8,1.8-1.8,1.8s-1.8-0.8-1.8-1.8s0.8-1.8,1.8-1.8S320.7,131.5,320.7,132.4z"/>
					<path class="st5" d="M451.4,141.8c0,1-0.8,1.8-1.8,1.8s-1.8-0.8-1.8-1.8s0.8-1.8,1.8-1.8S451.4,140.8,451.4,141.8z"/>
					<path class="st5" d="M466.4,194.6c0,1-0.8,1.8-1.8,1.8s-1.8-0.8-1.8-1.8s0.8-1.8,1.8-1.8S466.4,193.7,466.4,194.6z"/>
					<path class="st5" d="M466.5,194.7c0,1-0.8,1.8-1.8,1.8s-1.8-0.8-1.8-1.8s0.8-1.8,1.8-1.8S466.5,193.7,466.5,194.7z"/>
					<path class="st5" d="M468.8,194.9c0,1-0.8,1.8-1.8,1.8s-1.8-0.8-1.8-1.8s0.8-1.8,1.8-1.8S468.8,194,468.8,194.9z"/>
					<path class="st5" d="M470.9,198.3c0,1-0.8,1.8-1.8,1.8s-1.8-0.8-1.8-1.8s0.8-1.8,1.8-1.8S470.9,197.3,470.9,198.3z"/>
					<path class="st5" d="M478.5,199.1c0,1-0.8,1.8-1.8,1.8s-1.8-0.8-1.8-1.8s0.8-1.8,1.8-1.8S478.5,198.1,478.5,199.1z"/>
					<path class="st5" d="M482.2,203c0,1-0.8,1.8-1.8,1.8s-1.8-0.8-1.8-1.8s0.8-1.8,1.8-1.8S482.2,202,482.2,203z"/>
					<path class="st5" d="M497,205.6c0,1-0.8,1.8-1.8,1.8s-1.8-0.8-1.8-1.8s0.8-1.8,1.8-1.8S497,204.7,497,205.6z"/>
					<path class="st5" d="M500.3,210c0,1-0.8,1.8-1.8,1.8s-1.8-0.8-1.8-1.8s0.8-1.8,1.8-1.8S500.3,209,500.3,210z"/>
					<path class="st5" d="M511.7,210.8c0,1-0.8,1.8-1.8,1.8s-1.8-0.8-1.8-1.8s0.8-1.8,1.8-1.8S511.7,209.9,511.7,210.8z"/>
					<path class="st5" d="M511.8,211c0,1-0.8,1.8-1.8,1.8s-1.8-0.8-1.8-1.8s0.8-1.8,1.8-1.8S511.8,210,511.8,211z"/>
					<path class="st5" d="M515.2,254.9c0,1-0.8,1.8-1.8,1.8c-1,0-1.7-0.8-1.7-1.8s0.8-1.8,1.7-1.8
						C514.4,253.1,515.2,253.9,515.2,254.9z"/>
					<path class="st5" d="M515.7,256.5c0,1-0.8,1.8-1.8,1.8s-1.8-0.8-1.8-1.8s0.8-1.8,1.8-1.8S515.7,255.6,515.7,256.5z"/>
					<path class="st5" d="M516.1,256.7c0,1-0.8,1.8-1.8,1.8c-1,0-1.8-0.8-1.8-1.8s0.8-1.8,1.8-1.8
						C515.3,255,516.1,255.7,516.1,256.7z"/>
					<path class="st5" d="M516.4,257.3c0,1-0.8,1.8-1.8,1.8s-1.8-0.8-1.8-1.8s0.8-1.8,1.8-1.8S516.4,256.3,516.4,257.3z"/>
					<path class="st5" d="M516.5,257.3c0,1-0.8,1.8-1.8,1.8c-1,0-1.8-0.8-1.8-1.8s0.8-1.8,1.8-1.8
						C515.7,255.5,516.5,256.3,516.5,257.3z"/>
					<path class="st5" d="M517.8,260.4c0,1-0.8,1.8-1.8,1.8s-1.8-0.8-1.8-1.8s0.8-1.8,1.8-1.8S517.8,259.5,517.8,260.4z"/>
					<path class="st5" d="M523.9,262.5c0,1-0.8,1.8-1.8,1.8s-1.8-0.8-1.8-1.8s0.8-1.8,1.8-1.8S523.9,261.6,523.9,262.5z"/>
					<path class="st5" d="M524.4,266c0,1-0.8,1.8-1.8,1.8s-1.8-0.8-1.8-1.8s0.8-1.8,1.8-1.8S524.4,265.1,524.4,266z"/>
					<path class="st5" d="M528.3,267.2c0,1-0.8,1.8-1.8,1.8s-1.8-0.8-1.8-1.8s0.8-1.8,1.8-1.8S528.3,266.2,528.3,267.2z"/>
					<path class="st5" d="M539.6,275c0,1-0.8,1.8-1.8,1.8s-1.8-0.8-1.8-1.8s0.8-1.8,1.8-1.8S539.6,274,539.6,275z"/>
					<path class="st5" d="M563.7,284.6c0,1-0.8,1.8-1.8,1.8c-1,0-1.8-0.8-1.8-1.8s0.8-1.8,1.8-1.8
						C562.9,282.9,563.7,283.7,563.7,284.6z"/>
					<path class="st5" d="M568.6,299.7c0,1-0.8,1.8-1.8,1.8s-1.8-0.8-1.8-1.8s0.8-1.8,1.8-1.8S568.6,298.7,568.6,299.7z"/>
					<path class="st5" d="M588.2,302.3c0,1-0.8,1.8-1.8,1.8s-1.8-0.8-1.8-1.8s0.8-1.8,1.8-1.8S588.2,301.4,588.2,302.3z"/>
					<path class="st5" d="M589,302.4c0,1-0.8,1.8-1.8,1.8s-1.8-0.8-1.8-1.8s0.8-1.8,1.8-1.8S589,301.5,589,302.4z"/>
					<path class="st5" d="M590,368.4c0,1-0.8,1.8-1.8,1.8s-1.8-0.8-1.8-1.8s0.8-1.8,1.8-1.8S590,367.5,590,368.4z"/>
					<path class="st5" d="M700.6,372.6c0,1-0.8,1.8-1.8,1.8s-1.8-0.8-1.8-1.8s0.8-1.8,1.8-1.8S700.6,371.6,700.6,372.6z"/>
					<path class="st5" d="M701.1,382.9c0,1-0.8,1.8-1.8,1.8s-1.8-0.8-1.8-1.8s0.8-1.8,1.8-1.8S701.1,381.9,701.1,382.9z"/>
				</g>
			</g>
			<g>
				<g>
					<path class="st6" d="M312.9,145.1l37,17l1.3,1.7l16,9.7l28.3,2.8l7.4,174l0.8,1.5l0.1,0.1l0.3,10.9l211.4,3.6l7.7,7.6l17.3,0.5
						l7.6,1.5l4.2,5.4l35.8,1.4"/>
				</g>
				<g>
					<path class="st7" d="M314.7,145.1c0,1-0.8,1.8-1.8,1.8s-1.8-0.8-1.8-1.8s0.8-1.8,1.8-1.8S314.7,144.1,314.7,145.1z"/>
					<path class="st7" d="M349.7,161.4c0,1-0.8,1.8-1.8,1.8s-1.8-0.8-1.8-1.8s0.8-1.8,1.8-1.8S349.7,160.5,349.7,161.4z"/>
					<path class="st7" d="M351.7,162.1c0,1-0.8,1.8-1.8,1.8s-1.8-0.8-1.8-1.8s0.8-1.8,1.8-1.8S351.7,161.1,351.7,162.1z"/>
					<path class="st7" d="M353,163.7c0,1-0.8,1.8-1.8,1.8s-1.8-0.8-1.8-1.8s0.8-1.8,1.8-1.8S353,162.8,353,163.7z"/>
					<path class="st7" d="M368.3,173.1c0,1-0.8,1.8-1.8,1.8s-1.8-0.8-1.8-1.8s0.8-1.8,1.8-1.8S368.3,172.1,368.3,173.1z"/>
					<path class="st7" d="M369,173.4c0,1-0.8,1.8-1.8,1.8s-1.8-0.8-1.8-1.8s0.8-1.8,1.8-1.8S369,172.4,369,173.4z"/>
					<path class="st7" d="M397.2,176.2c0,1-0.8,1.8-1.8,1.8s-1.8-0.8-1.8-1.8s0.8-1.8,1.8-1.8S397.2,175.2,397.2,176.2z"/>
					<path class="st7" d="M404.6,350.2c0,1-0.8,1.8-1.8,1.8s-1.8-0.8-1.8-1.8s0.8-1.8,1.8-1.8S404.6,349.2,404.6,350.2z"/>
					<path class="st7" d="M405.5,351.8c0,1-0.8,1.8-1.8,1.8s-1.8-0.8-1.8-1.8s0.8-1.8,1.8-1.8S405.5,350.8,405.5,351.8z"/>
					<path class="st7" d="M405.6,351.9c0,1-0.8,1.8-1.8,1.8s-1.8-0.8-1.8-1.8s0.8-1.8,1.8-1.8S405.6,350.9,405.6,351.9z"/>
					<path class="st7" d="M405.9,362.8c0,1-0.8,1.8-1.8,1.8s-1.8-0.8-1.8-1.8s0.8-1.8,1.8-1.8S405.9,361.8,405.9,362.8z"/>
					<path class="st7" d="M617.3,366.4c0,1-0.8,1.8-1.8,1.8s-1.8-0.8-1.8-1.8s0.8-1.8,1.8-1.8S617.3,365.4,617.3,366.4z"/>
					<path class="st7" d="M625,374c0,1-0.8,1.8-1.8,1.8s-1.8-0.8-1.8-1.8s0.8-1.8,1.8-1.8S625,373,625,374z"/>
					<path class="st7" d="M641.2,374.4c0,1-0.8,1.8-1.8,1.8s-1.8-0.8-1.8-1.8s0.8-1.8,1.8-1.8S641.2,373.4,641.2,374.4z"/>
					<path class="st7" d="M642.1,374.5c0,1-0.8,1.8-1.8,1.8s-1.8-0.8-1.8-1.8s0.8-1.8,1.8-1.8S642.1,373.5,642.1,374.5z"/>
					<path class="st7" d="M642.3,374.5c0,1-0.8,1.8-1.8,1.8s-1.8-0.8-1.8-1.8s0.8-1.8,1.8-1.8S642.3,373.5,642.3,374.5z"/>
					<path class="st7" d="M649.9,376c0,1-0.8,1.8-1.8,1.8s-1.8-0.8-1.8-1.8s0.8-1.8,1.8-1.8S649.9,375,649.9,376z"/>
					<path class="st7" d="M653.6,381c0,1-0.8,1.8-1.8,1.8s-1.8-0.8-1.8-1.8s0.8-1.8,1.8-1.8S653.6,380,653.6,381z"/>
					<path class="st7" d="M654,381.4c0,1-0.8,1.8-1.8,1.8s-1.8-0.8-1.8-1.8s0.8-1.8,1.8-1.8S654,380.5,654,381.4z"/>
					<path class="st7" d="M689.8,382.9c0,1-0.8,1.8-1.8,1.8s-1.8-0.8-1.8-1.8s0.8-1.8,1.8-1.8S689.8,381.9,689.8,382.9z"/>
				</g>
			</g>
			<g>
				<g>
					<path class="st8" d="M79.5,37.5L82,61.6l54.5,153.6l230.9,19l26.2,33.6l64.5,21.1l18.1,19l63.1,31.7l65.6,2.5l32.4,14.7
						l33.9,23.1l46.9,0.3"/>
				</g>
				<g>
					<path class="st9" d="M81.3,37.5c0,1-0.8,1.8-1.8,1.8s-1.8-0.8-1.8-1.8s0.8-1.8,1.8-1.8S81.3,36.5,81.3,37.5z"/>
					<path class="st9" d="M83.7,61.6c0,1-0.8,1.8-1.8,1.8s-1.8-0.8-1.8-1.8s0.8-1.8,1.8-1.8S83.7,60.6,83.7,61.6z"/>
					<path class="st9" d="M138.2,215.3c0,1-0.8,1.8-1.8,1.8s-1.8-0.8-1.8-1.8s0.8-1.8,1.8-1.8S138.2,214.3,138.2,215.3z"/>
					<path class="st9" d="M369.1,234.3c0,1-0.8,1.8-1.8,1.8s-1.8-0.8-1.8-1.8s0.8-1.8,1.8-1.8S369.1,233.3,369.1,234.3z"/>
					<path class="st9" d="M395.4,267.9c0,1-0.8,1.8-1.8,1.8s-1.8-0.8-1.8-1.8s0.8-1.8,1.8-1.8S395.4,266.9,395.4,267.9z"/>
					<path class="st9" d="M459.9,288.9c0,1-0.8,1.8-1.8,1.8s-1.8-0.8-1.8-1.8s0.8-1.8,1.8-1.8S459.9,287.9,459.9,288.9z"/>
					<path class="st9" d="M478,307.9c0,1-0.8,1.8-1.8,1.8s-1.8-0.8-1.8-1.8s0.8-1.8,1.8-1.8S478,306.9,478,307.9z"/>
					<path class="st9" d="M541.1,339.6c0,1-0.8,1.8-1.8,1.8s-1.8-0.8-1.8-1.8s0.8-1.8,1.8-1.8S541.1,338.7,541.1,339.6z"/>
					<path class="st9" d="M606.7,342.1c0,1-0.8,1.8-1.8,1.8s-1.8-0.8-1.8-1.8s0.8-1.8,1.8-1.8S606.7,341.2,606.7,342.1z"/>
					<path class="st9" d="M639.1,356.9c0,1-0.8,1.8-1.8,1.8s-1.8-0.8-1.8-1.8s0.8-1.8,1.8-1.8S639.1,355.9,639.1,356.9z"/>
					<path class="st9" d="M673,379.9c0,1-0.8,1.8-1.8,1.8s-1.8-0.8-1.8-1.8s0.8-1.8,1.8-1.8S673,379,673,379.9z"/>
					<path class="st9" d="M720,380.3c0,1-0.8,1.8-1.8,1.8s-1.8-0.8-1.8-1.8s0.8-1.8,1.8-1.8S720,379.3,720,380.3z"/>
				</g>
			</g>
			<g>
				<g>
					<path class="st10" d="M57.9,20.1l21,190.3l35.7,4.8l4.9,0.1l140,1.3l150.2,4.9l0.5,13.5l16.4,10l12.3,17.3l86.7,1.8l27.6,10.9
						l45,3.6l8.3,13l16.7,11.2l8.6,1.1l5.1,1.8l0.1,9.3l15.2,36.7l28.6,1l5,6.3l1,11.3l0.5,0l6.7,14.6l3.3,0.7l5.6,6.2l1.2,3.1
						l0.2,7.8l5.5,5.9l1.7,6.4l2.4,5.2"/>
				</g>
				<g>
					<path class="st11" d="M59.7,20.1c0,1-0.8,1.8-1.8,1.8c-1,0-1.8-0.8-1.8-1.8s0.8-1.8,1.8-1.8C58.9,18.4,59.7,19.2,59.7,20.1z"/>
					<path class="st11" d="M80.7,210.4c0,1-0.8,1.8-1.8,1.8s-1.8-0.8-1.8-1.8s0.8-1.8,1.8-1.8S80.7,209.4,80.7,210.4z"/>
					<path class="st11" d="M116.4,215.2c0,1-0.8,1.8-1.8,1.8s-1.8-0.8-1.8-1.8s0.8-1.8,1.8-1.8S116.4,214.2,116.4,215.2z"/>
					<path class="st11" d="M121.3,215.3c0,1-0.8,1.8-1.8,1.8s-1.8-0.8-1.8-1.8s0.8-1.8,1.8-1.8S121.3,214.3,121.3,215.3z"/>
					<path class="st11" d="M261.4,216.6c0,1-0.8,1.8-1.8,1.8c-1,0-1.8-0.8-1.8-1.8s0.8-1.8,1.8-1.8
						C260.6,214.9,261.4,215.7,261.4,216.6z"/>
					<path class="st11" d="M310.4,218.3c0,1-0.8,1.8-1.8,1.8s-1.8-0.8-1.8-1.8s0.8-1.8,1.8-1.8S310.4,217.3,310.4,218.3z"/>
					<path class="st11" d="M354.4,220c0,1-0.8,1.8-1.8,1.8s-1.8-0.8-1.8-1.8s0.8-1.8,1.8-1.8S354.4,219,354.4,220z"/>
					<path class="st11" d="M411.6,221.5c0,1-0.8,1.8-1.8,1.8s-1.8-0.8-1.8-1.8s0.8-1.8,1.8-1.8S411.6,220.6,411.6,221.5z"/>
					<path class="st11" d="M412.1,235.1c0,1-0.8,1.8-1.8,1.8s-1.8-0.8-1.8-1.8s0.8-1.8,1.8-1.8S412.1,234.1,412.1,235.1z"/>
					<path class="st11" d="M428.5,245.1c0,1-0.8,1.8-1.8,1.8s-1.8-0.8-1.8-1.8s0.8-1.8,1.8-1.8S428.5,244.1,428.5,245.1z"/>
					<path class="st11" d="M440.9,262.4c0,1-0.8,1.8-1.8,1.8s-1.8-0.8-1.8-1.8s0.8-1.8,1.8-1.8S440.9,261.4,440.9,262.4z"/>
					<path class="st11" d="M527.6,264.2c0,1-0.8,1.8-1.8,1.8c-1,0-1.8-0.8-1.8-1.8s0.8-1.8,1.8-1.8
						C526.8,262.4,527.6,263.2,527.6,264.2z"/>
					<path class="st11" d="M555.2,275c0,1-0.8,1.8-1.8,1.8c-1,0-1.8-0.8-1.8-1.8s0.8-1.8,1.8-1.8C554.4,273.3,555.2,274.1,555.2,275
						z"/>
					<path class="st11" d="M600.2,278.6c0,1-0.8,1.8-1.8,1.8s-1.8-0.8-1.8-1.8s0.8-1.8,1.8-1.8S600.2,277.7,600.2,278.6z"/>
					<path class="st11" d="M608.5,291.6c0,1-0.8,1.8-1.8,1.8s-1.8-0.8-1.8-1.8s0.8-1.8,1.8-1.8S608.5,290.6,608.5,291.6z"/>
					<path class="st11" d="M625.2,302.7c0,1-0.8,1.8-1.8,1.8s-1.8-0.8-1.8-1.8s0.8-1.8,1.8-1.8S625.2,301.8,625.2,302.7z"/>
					<path class="st11" d="M633.8,303.8c0,1-0.8,1.8-1.8,1.8s-1.8-0.8-1.8-1.8s0.8-1.8,1.8-1.8S633.8,302.8,633.8,303.8z"/>
					<path class="st11" d="M638.9,305.6c0,1-0.8,1.8-1.8,1.8s-1.8-0.8-1.8-1.8s0.8-1.8,1.8-1.8S638.9,304.6,638.9,305.6z"/>
					<path class="st11" d="M639,314.9c0,1-0.8,1.8-1.8,1.8s-1.8-0.8-1.8-1.8s0.8-1.8,1.8-1.8S639,313.9,639,314.9z"/>
					<path class="st11" d="M654,349.8c0,1-0.8,1.8-1.8,1.8s-1.8-0.8-1.8-1.8s0.8-1.8,1.8-1.8S654,348.9,654,349.8z"/>
					<path class="st11" d="M654.3,351.6c0,1-0.8,1.8-1.8,1.8s-1.8-0.8-1.8-1.8s0.8-1.8,1.8-1.8S654.3,350.6,654.3,351.6z"/>
					<path class="st11" d="M682.9,352.6c0,1-0.8,1.8-1.8,1.8s-1.8-0.8-1.8-1.8s0.8-1.8,1.8-1.8S682.9,351.6,682.9,352.6z"/>
					<path class="st11" d="M687.9,358.9c0,1-0.8,1.8-1.8,1.8s-1.8-0.8-1.8-1.8s0.8-1.8,1.8-1.8S687.9,357.9,687.9,358.9z"/>
					<path class="st11" d="M688.8,370.2c0,1-0.8,1.8-1.8,1.8s-1.8-0.8-1.8-1.8s0.8-1.8,1.8-1.8S688.8,369.3,688.8,370.2z"/>
					<path class="st11" d="M689.3,370.2c0,1-0.8,1.8-1.8,1.8s-1.8-0.8-1.8-1.8s0.8-1.8,1.8-1.8S689.3,369.3,689.3,370.2z"/>
					<path class="st11" d="M696.1,384.8c0,1-0.8,1.8-1.8,1.8s-1.8-0.8-1.8-1.8s0.8-1.8,1.8-1.8S696.1,383.9,696.1,384.8z"/>
					<path class="st11" d="M699.4,385.5c0,1-0.8,1.8-1.8,1.8s-1.8-0.8-1.8-1.8s0.8-1.8,1.8-1.8S699.4,384.6,699.4,385.5z"/>
					<path class="st11" d="M705,391.7c0,1-0.8,1.8-1.8,1.8s-1.8-0.8-1.8-1.8s0.8-1.8,1.8-1.8S705,390.8,705,391.7z"/>
					<path class="st11" d="M706.2,394.9c0,1-0.8,1.8-1.8,1.8s-1.8-0.8-1.8-1.8s0.8-1.8,1.8-1.8S706.2,393.9,706.2,394.9z"/>
					<path class="st11" d="M706.4,402.6c0,1-0.8,1.8-1.8,1.8s-1.8-0.8-1.8-1.8s0.8-1.8,1.8-1.8S706.4,401.7,706.4,402.6z"/>
					<path class="st11" d="M711.9,408.5c0,1-0.8,1.8-1.8,1.8s-1.8-0.8-1.8-1.8s0.8-1.8,1.8-1.8S711.9,407.5,711.9,408.5z"/>
					<path class="st11" d="M713.6,414.8c0,1-0.8,1.8-1.8,1.8s-1.8-0.8-1.8-1.8s0.8-1.8,1.8-1.8S713.6,413.9,713.6,414.8z"/>
					<path class="st11" d="M716,420c0,1-0.8,1.8-1.8,1.8s-1.8-0.8-1.8-1.8s0.8-1.8,1.8-1.8S716,419,716,420z"/>
				</g>
			</g>
			<g>
				<g>
					<path class="st12" d="M417.1,91.8l31.5,27.2l17.4,23l11.9,22.6l5.4,8.2l1.4,0.7l5.2,14.9l7.6,10.7l18.5,19l4.1,0.4l4.5,3.8
						l1.3,1.3l5.6,2.3l18.5,1.9l2.7,12.4l2,45.4l1.4,2.6l32.4,24l7.1,6.1l11.5,17.6l8.9,8l5.7,19.3l7,0.7l26.1,0.8l1.9,9.1l1.4,0.4
						l15,0.1l156.6,9.9"/>
				</g>
				<g>
					<path class="st13" d="M418.9,91.8c0,1-0.8,1.8-1.8,1.8s-1.8-0.8-1.8-1.8s0.8-1.8,1.8-1.8S418.9,90.9,418.9,91.8z"/>
					<path class="st13" d="M450.4,119.1c0,1-0.8,1.8-1.8,1.8s-1.8-0.8-1.8-1.8s0.8-1.8,1.8-1.8S450.4,118.1,450.4,119.1z"/>
					<path class="st13" d="M467.8,142c0,1-0.8,1.8-1.8,1.8s-1.8-0.8-1.8-1.8s0.8-1.8,1.8-1.8S467.8,141.1,467.8,142z"/>
					<path class="st13" d="M479.8,164.6c0,1-0.8,1.8-1.8,1.8s-1.8-0.8-1.8-1.8s0.8-1.8,1.8-1.8S479.8,163.6,479.8,164.6z"/>
					<path class="st13" d="M485.2,172.8c0,1-0.8,1.8-1.8,1.8s-1.8-0.8-1.8-1.8s0.8-1.8,1.8-1.8S485.2,171.8,485.2,172.8z"/>
					<path class="st13" d="M486.6,173.5c0,1-0.8,1.8-1.8,1.8s-1.8-0.8-1.8-1.8s0.8-1.8,1.8-1.8S486.6,172.5,486.6,173.5z"/>
					<path class="st13" d="M491.7,188.4c0,1-0.8,1.8-1.8,1.8s-1.8-0.8-1.8-1.8s0.8-1.8,1.8-1.8S491.7,187.4,491.7,188.4z"/>
					<path class="st13" d="M496.6,195.5c0,1-0.8,1.8-1.8,1.8s-1.8-0.8-1.8-1.8s0.8-1.8,1.8-1.8S496.6,194.5,496.6,195.5z"/>
					<path class="st13" d="M499.4,199.1c0,1-0.8,1.8-1.8,1.8s-1.8-0.8-1.8-1.8s0.8-1.8,1.8-1.8S499.4,198.1,499.4,199.1z"/>
					<path class="st13" d="M517.9,218.1c0,1-0.8,1.8-1.8,1.8s-1.8-0.8-1.8-1.8s0.8-1.8,1.8-1.8S517.9,217.1,517.9,218.1z"/>
					<path class="st13" d="M522,218.5c0,1-0.8,1.8-1.8,1.8c-1,0-1.8-0.8-1.8-1.8s0.8-1.8,1.8-1.8C521.2,216.7,522,217.5,522,218.5z"
						/>
					<path class="st13" d="M526.5,222.3c0,1-0.8,1.8-1.8,1.8s-1.8-0.8-1.8-1.8s0.8-1.8,1.8-1.8S526.5,221.3,526.5,222.3z"/>
					<path class="st13" d="M527.3,223.6c0,1-0.8,1.8-1.8,1.8c-1,0-1.8-0.8-1.8-1.8s0.8-1.8,1.8-1.8
						C526.6,221.8,527.3,222.6,527.3,223.6z"/>
					<path class="st13" d="M527.8,223.6c0,1-0.8,1.8-1.8,1.8s-1.8-0.8-1.8-1.8s0.8-1.8,1.8-1.8S527.8,222.6,527.8,223.6z"/>
					<path class="st13" d="M527.8,223.6c0,1-0.8,1.8-1.8,1.8c-1,0-1.8-0.8-1.8-1.8s0.8-1.8,1.8-1.8
						C527.1,221.9,527.8,222.6,527.8,223.6z"/>
					<path class="st13" d="M533.4,225.9c0,1-0.8,1.8-1.8,1.8s-1.8-0.8-1.8-1.8s0.8-1.8,1.8-1.8S533.4,224.9,533.4,225.9z"/>
					<path class="st13" d="M551.5,227.2c0,1-0.8,1.8-1.8,1.8c-1,0-1.8-0.8-1.8-1.8s0.8-1.8,1.8-1.8
						C550.7,225.4,551.5,226.2,551.5,227.2z"/>
					<path class="st13" d="M551.6,227.2c0,1-0.8,1.8-1.8,1.8c-1,0-1.8-0.8-1.8-1.8s0.8-1.8,1.8-1.8
						C550.8,225.4,551.6,226.2,551.6,227.2z"/>
					<path class="st13" d="M552,227.8c0,1-0.8,1.8-1.8,1.8s-1.8-0.8-1.8-1.8s0.8-1.8,1.8-1.8S552,226.9,552,227.8z"/>
					<path class="st13" d="M554.7,240.2c0,1-0.8,1.8-1.8,1.8c-1,0-1.8-0.8-1.8-1.8s0.8-1.8,1.8-1.8
						C553.9,238.5,554.7,239.3,554.7,240.2z"/>
					<path class="st13" d="M556.2,285.3c0,1-0.8,1.8-1.8,1.8c-1,0-1.8-0.8-1.8-1.8s0.8-1.8,1.8-1.8
						C555.4,283.5,556.2,284.3,556.2,285.3z"/>
					<path class="st13" d="M556.7,285.7c0,1-0.8,1.8-1.8,1.8s-1.8-0.8-1.8-1.8s0.8-1.8,1.8-1.8S556.7,284.7,556.7,285.7z"/>
					<path class="st13" d="M558,288.3c0,1-0.8,1.8-1.8,1.8c-1,0-1.8-0.8-1.8-1.8s0.8-1.8,1.8-1.8C557.2,286.5,558,287.3,558,288.3z"
						/>
					<path class="st13" d="M590.1,311.9c0,1-0.8,1.8-1.8,1.8s-1.8-0.8-1.8-1.8s0.8-1.8,1.8-1.8S590.1,310.9,590.1,311.9z"/>
					<path class="st13" d="M590.4,312.3c0,1-0.8,1.8-1.8,1.8s-1.8-0.8-1.8-1.8s0.8-1.8,1.8-1.8S590.4,311.3,590.4,312.3z"/>
					<path class="st13" d="M597.5,318.4c0,1-0.8,1.8-1.8,1.8s-1.8-0.8-1.8-1.8s0.8-1.8,1.8-1.8S597.5,317.4,597.5,318.4z"/>
					<path class="st13" d="M609.1,336c0,1-0.8,1.8-1.8,1.8s-1.8-0.8-1.8-1.8s0.8-1.8,1.8-1.8S609.1,335,609.1,336z"/>
					<path class="st13" d="M618,344c0,1-0.8,1.8-1.8,1.8s-1.8-0.8-1.8-1.8s0.8-1.8,1.8-1.8S618,343,618,344z"/>
					<path class="st13" d="M621.7,355.9c0,1-0.8,1.8-1.8,1.8s-1.8-0.8-1.8-1.8s0.8-1.8,1.8-1.8S621.7,354.9,621.7,355.9z"/>
					<path class="st13" d="M623.7,363.2c0,1-0.8,1.8-1.8,1.8s-1.8-0.8-1.8-1.8s0.8-1.8,1.8-1.8S623.7,362.3,623.7,363.2z"/>
					<path class="st13" d="M630.7,364c0,1-0.8,1.8-1.8,1.8s-1.8-0.8-1.8-1.8s0.8-1.8,1.8-1.8S630.7,363,630.7,364z"/>
					<path class="st13" d="M656.8,364.8c0,1-0.8,1.8-1.8,1.8s-1.8-0.8-1.8-1.8s0.8-1.8,1.8-1.8S656.8,363.8,656.8,364.8z"/>
					<path class="st13" d="M658.7,373.9c0,1-0.8,1.8-1.8,1.8s-1.8-0.8-1.8-1.8s0.8-1.8,1.8-1.8S658.7,373,658.7,373.9z"/>
					<path class="st13" d="M660,374.4c0,1-0.8,1.8-1.8,1.8s-1.8-0.8-1.8-1.8s0.8-1.8,1.8-1.8S660,373.4,660,374.4z"/>
					<path class="st13" d="M675,374.4c0,1-0.8,1.8-1.8,1.8s-1.8-0.8-1.8-1.8s0.8-1.8,1.8-1.8S675,373.5,675,374.4z"/>
					<path class="st13" d="M831.6,384.3c0,1-0.8,1.8-1.8,1.8s-1.8-0.8-1.8-1.8s0.8-1.8,1.8-1.8S831.6,383.4,831.6,384.3z"/>
				</g>
			</g>
			<g>
				<g>
					<path class="st14" d="M383.9,92.2l13.6,0.6l1.6,10.8l6,30.2l28.2,2.4l69.9,49.5l10.5,16.8l6.4,14.1l4.6,2.7l5.6,4l0.2,1.5
						l3,0.4l0,0.9l2,1.6l0.8,0l3.6,2.5l1.2,1.5l1.8,1.4l1.7,2.8l3.4,2.6l9.8,4.3l2,1.6l7.9,3.1l11.2,0.8l1.8,4.2l0.2,0.2l4,5.4
						l16.1,69.6l8.1,0.8l3.1,1.7l9.6,0.6l1.4,2.6l1.1,0.2l0.7,0.6l1.2,4.4l4.3,3.8l5.4,2.4l1.6,6.7l5.1,3.9l3.1,6l10,5.3l0.4,0.8
						l0.9,3.9l5.2,18.7l3.8,5.7l0.4,0.7l2.2,1.6l3.3,7.9l4.2,5.1l1.2,1.4l2.2,1.2"/>
				</g>
				<g>
					<path class="st15" d="M385.6,92.2c0,1-0.8,1.8-1.8,1.8s-1.8-0.8-1.8-1.8s0.8-1.8,1.8-1.8S385.6,91.3,385.6,92.2z"/>
					<path class="st15" d="M398.1,92.3c0,1-0.8,1.8-1.8,1.8s-1.8-0.8-1.8-1.8s0.8-1.8,1.8-1.8S398.1,91.4,398.1,92.3z"/>
					<path class="st15" d="M399.2,92.9c0,1-0.8,1.8-1.8,1.8s-1.8-0.8-1.8-1.8s0.8-1.8,1.8-1.8S399.2,91.9,399.2,92.9z"/>
					<path class="st15" d="M400.8,103.7c0,1-0.8,1.8-1.8,1.8s-1.8-0.8-1.8-1.8s0.8-1.8,1.8-1.8S400.8,102.7,400.8,103.7z"/>
					<path class="st15" d="M406.8,133.8c0,1-0.8,1.8-1.8,1.8s-1.8-0.8-1.8-1.8s0.8-1.8,1.8-1.8S406.8,132.9,406.8,133.8z"/>
					<path class="st15" d="M435,136.2c0,1-0.8,1.8-1.8,1.8s-1.8-0.8-1.8-1.8s0.8-1.8,1.8-1.8S435,135.2,435,136.2z"/>
					<path class="st15" d="M504.9,185.7c0,1-0.8,1.8-1.8,1.8s-1.8-0.8-1.8-1.8s0.8-1.8,1.8-1.8S504.9,184.8,504.9,185.7z"/>
					<path class="st15" d="M515.4,202.5c0,1-0.8,1.8-1.8,1.8s-1.8-0.8-1.8-1.8s0.8-1.8,1.8-1.8S515.4,201.6,515.4,202.5z"/>
					<path class="st15" d="M521.8,216.6c0,1-0.8,1.8-1.8,1.8s-1.8-0.8-1.8-1.8s0.8-1.8,1.8-1.8S521.8,215.7,521.8,216.6z"/>
					<path class="st15" d="M526.3,219.3c0,1-0.8,1.8-1.8,1.8s-1.8-0.8-1.8-1.8s0.8-1.8,1.8-1.8S526.3,218.3,526.3,219.3z"/>
					<path class="st15" d="M528.9,221.6c0,1-0.8,1.8-1.8,1.8s-1.8-0.8-1.8-1.8s0.8-1.8,1.8-1.8S528.9,220.6,528.9,221.6z"/>
					<path class="st15" d="M529.5,221.9c0,1-0.8,1.8-1.8,1.8c-1,0-1.8-0.8-1.8-1.8s0.8-1.8,1.8-1.8
						C528.7,220.2,529.5,220.9,529.5,221.9z"/>
					<path class="st15" d="M530.6,222.3c0,1-0.8,1.8-1.8,1.8s-1.8-0.8-1.8-1.8s0.8-1.8,1.8-1.8S530.6,221.3,530.6,222.3z"/>
					<path class="st15" d="M532,223.4c0,1-0.8,1.8-1.8,1.8c-1,0-1.8-0.8-1.8-1.8s0.8-1.8,1.8-1.8C531.2,221.6,532,222.4,532,223.4z"
						/>
					<path class="st15" d="M532.2,224.9c0,1-0.8,1.8-1.8,1.8s-1.8-0.8-1.8-1.8s0.8-1.8,1.8-1.8S532.2,223.9,532.2,224.9z"/>
					<path class="st15" d="M533,224.9c0,1-0.8,1.8-1.8,1.8s-1.8-0.8-1.8-1.8s0.8-1.8,1.8-1.8S533,224,533,224.9z"/>
					<path class="st15" d="M535,224.9c0,1-0.8,1.8-1.8,1.8c-1,0-1.8-0.8-1.8-1.8s0.8-1.8,1.8-1.8C534.2,223.2,535,224,535,224.9z"/>
					<path class="st15" d="M535.1,225.3c0,1-0.8,1.8-1.8,1.8s-1.8-0.8-1.8-1.8s0.8-1.8,1.8-1.8S535.1,224.3,535.1,225.3z"/>
					<path class="st15" d="M535.2,226.2c0,1-0.8,1.8-1.8,1.8c-1,0-1.8-0.8-1.8-1.8s0.8-1.8,1.8-1.8
						C534.4,224.4,535.2,225.2,535.2,226.2z"/>
					<path class="st15" d="M535.5,226.6c0,1-0.8,1.8-1.8,1.8c-1,0-1.8-0.8-1.8-1.8s0.8-1.8,1.8-1.8
						C534.7,224.9,535.5,225.7,535.5,226.6z"/>
					<path class="st15" d="M537.2,227.8c0,1-0.8,1.8-1.8,1.8c-1,0-1.8-0.8-1.8-1.8s0.8-1.8,1.8-1.8
						C536.4,226.1,537.2,226.9,537.2,227.8z"/>
					<path class="st15" d="M537.9,227.9c0,1-0.8,1.8-1.8,1.8s-1.8-0.8-1.8-1.8s0.8-1.8,1.8-1.8S537.9,226.9,537.9,227.9z"/>
					<path class="st15" d="M538.1,227.9c0,1-0.8,1.8-1.8,1.8c-1,0-1.8-0.8-1.8-1.8s0.8-1.8,1.8-1.8
						C537.3,226.2,538.1,227,538.1,227.9z"/>
					<path class="st15" d="M538.2,228.2c0,1-0.8,1.8-1.8,1.8s-1.8-0.8-1.8-1.8s0.8-1.8,1.8-1.8S538.2,227.2,538.2,228.2z"/>
					<path class="st15" d="M539.2,228.5c0,1-0.8,1.8-1.8,1.8c-1,0-1.8-0.8-1.8-1.8s0.8-1.8,1.8-1.8
						C538.4,226.7,539.2,227.5,539.2,228.5z"/>
					<path class="st15" d="M539.5,228.6c0,1-0.8,1.8-1.8,1.8c-1,0-1.8-0.8-1.8-1.8s0.8-1.8,1.8-1.8
						C538.7,226.9,539.5,227.6,539.5,228.6z"/>
					<path class="st15" d="M539.6,229.5c0,1-0.8,1.8-1.8,1.8c-1,0-1.8-0.8-1.8-1.8s0.8-1.8,1.8-1.8
						C538.8,227.7,539.6,228.5,539.6,229.5z"/>
					<path class="st15" d="M540.6,229.7c0,1-0.8,1.8-1.8,1.8s-1.8-0.8-1.8-1.8s0.8-1.8,1.8-1.8S540.6,228.8,540.6,229.7z"/>
					<path class="st15" d="M541.3,230c0,1-0.8,1.8-1.8,1.8s-1.8-0.8-1.8-1.8s0.8-1.8,1.8-1.8S541.3,229,541.3,230z"/>
					<path class="st15" d="M541.5,230.4c0,1-0.8,1.8-1.8,1.8s-1.8-0.8-1.8-1.8s0.8-1.8,1.8-1.8S541.5,229.4,541.5,230.4z"/>
					<path class="st15" d="M541.5,230.4c0,1-0.8,1.8-1.8,1.8s-1.8-0.8-1.8-1.8s0.8-1.8,1.8-1.8S541.5,229.4,541.5,230.4z"/>
					<path class="st15" d="M542.7,231.9c0,1-0.8,1.8-1.8,1.8c-1,0-1.8-0.8-1.8-1.8s0.8-1.8,1.8-1.8
						C541.9,230.1,542.7,230.9,542.7,231.9z"/>
					<path class="st15" d="M544.4,233.3c0,1-0.8,1.8-1.8,1.8s-1.8-0.8-1.8-1.8s0.8-1.8,1.8-1.8S544.4,232.3,544.4,233.3z"/>
					<path class="st15" d="M546.1,236c0,1-0.8,1.8-1.8,1.8s-1.8-0.8-1.8-1.8s0.8-1.8,1.8-1.8S546.1,235.1,546.1,236z"/>
					<path class="st15" d="M546.4,236.3c0,1-0.8,1.8-1.8,1.8c-1,0-1.8-0.8-1.8-1.8s0.8-1.8,1.8-1.8
						C545.6,234.6,546.4,235.3,546.4,236.3z"/>
					<path class="st15" d="M549.5,238.7c0,1-0.8,1.8-1.8,1.8c-1,0-1.8-0.8-1.8-1.8s0.8-1.8,1.8-1.8
						C548.8,236.9,549.5,237.7,549.5,238.7z"/>
					<path class="st15" d="M559.4,243c0,1-0.8,1.8-1.8,1.8s-1.8-0.8-1.8-1.8s0.8-1.8,1.8-1.8S559.4,242,559.4,243z"/>
					<path class="st15" d="M561.3,244.6c0,1-0.8,1.8-1.8,1.8c-1,0-1.8-0.8-1.8-1.8s0.8-1.8,1.8-1.8
						C560.6,242.8,561.3,243.6,561.3,244.6z"/>
					<path class="st15" d="M569.2,247.7c0,1-0.8,1.8-1.8,1.8s-1.8-0.8-1.8-1.8s0.8-1.8,1.8-1.8S569.2,246.7,569.2,247.7z"/>
					<path class="st15" d="M580.4,248.5c0,1-0.8,1.8-1.8,1.8s-1.8-0.8-1.8-1.8s0.8-1.8,1.8-1.8S580.4,247.5,580.4,248.5z"/>
					<path class="st15" d="M582.2,252.6c0,1-0.8,1.8-1.8,1.8s-1.8-0.8-1.8-1.8s0.8-1.8,1.8-1.8S582.2,251.7,582.2,252.6z"/>
					<path class="st15" d="M582.4,252.8c0,1-0.8,1.8-1.8,1.8s-1.8-0.8-1.8-1.8s0.8-1.8,1.8-1.8S582.4,251.8,582.4,252.8z"/>
					<path class="st15" d="M586.4,258.2c0,1-0.8,1.8-1.8,1.8s-1.8-0.8-1.8-1.8s0.8-1.8,1.8-1.8S586.4,257.2,586.4,258.2z"/>
					<path class="st15" d="M602.5,327.8c0,1-0.8,1.8-1.8,1.8s-1.8-0.8-1.8-1.8s0.8-1.8,1.8-1.8S602.5,326.8,602.5,327.8z"/>
					<path class="st15" d="M610.6,328.6c0,1-0.8,1.8-1.8,1.8s-1.8-0.8-1.8-1.8s0.8-1.8,1.8-1.8S610.6,327.6,610.6,328.6z"/>
					<path class="st15" d="M612.7,330.1c0,1-0.8,1.8-1.8,1.8s-1.8-0.8-1.8-1.8s0.8-1.8,1.8-1.8S612.7,329.2,612.7,330.1z"/>
					<path class="st15" d="M613.3,330.2c0,1-0.8,1.8-1.8,1.8s-1.8-0.8-1.8-1.8s0.8-1.8,1.8-1.8S613.3,329.3,613.3,330.2z"/>
					<path class="st15" d="M613.7,330.3c0,1-0.8,1.8-1.8,1.8s-1.8-0.8-1.8-1.8s0.8-1.8,1.8-1.8S613.7,329.3,613.7,330.3z"/>
					<path class="st15" d="M623.3,330.9c0,1-0.8,1.8-1.8,1.8s-1.8-0.8-1.8-1.8s0.8-1.8,1.8-1.8S623.3,330,623.3,330.9z"/>
					<path class="st15" d="M623.9,331.8c0,1-0.8,1.8-1.8,1.8s-1.8-0.8-1.8-1.8s0.8-1.8,1.8-1.8S623.9,330.8,623.9,331.8z"/>
					<path class="st15" d="M624.7,333.5c0,1-0.8,1.8-1.8,1.8s-1.8-0.8-1.8-1.8s0.8-1.8,1.8-1.8S624.7,332.5,624.7,333.5z"/>
					<path class="st15" d="M625.8,333.6c0,1-0.8,1.8-1.8,1.8s-1.8-0.8-1.8-1.8s0.8-1.8,1.8-1.8S625.8,332.7,625.8,333.6z"/>
					<path class="st15" d="M626.4,334.3c0,1-0.8,1.8-1.8,1.8s-1.8-0.8-1.8-1.8s0.8-1.8,1.8-1.8S626.4,333.3,626.4,334.3z"/>
					<path class="st15" d="M627.7,338.7c0,1-0.8,1.8-1.8,1.8s-1.8-0.8-1.8-1.8s0.8-1.8,1.8-1.8S627.7,337.7,627.7,338.7z"/>
					<path class="st15" d="M628,339c0,1-0.8,1.8-1.8,1.8s-1.8-0.8-1.8-1.8s0.8-1.8,1.8-1.8S628,338,628,339z"/>
					<path class="st15" d="M631.9,342.5c0,1-0.8,1.8-1.8,1.8s-1.8-0.8-1.8-1.8s0.8-1.8,1.8-1.8S631.9,341.5,631.9,342.5z"/>
					<path class="st15" d="M637.3,344.9c0,1-0.8,1.8-1.8,1.8s-1.8-0.8-1.8-1.8s0.8-1.8,1.8-1.8S637.3,343.9,637.3,344.9z"/>
					<path class="st15" d="M639,351.6c0,1-0.8,1.8-1.8,1.8s-1.8-0.8-1.8-1.8s0.8-1.8,1.8-1.8S639,350.6,639,351.6z"/>
					<path class="st15" d="M644,355.5c0,1-0.8,1.8-1.8,1.8s-1.8-0.8-1.8-1.8s0.8-1.8,1.8-1.8S644,354.6,644,355.5z"/>
					<path class="st15" d="M645.1,357.2c0,1-0.8,1.8-1.8,1.8s-1.8-0.8-1.8-1.8s0.8-1.8,1.8-1.8S645.1,356.2,645.1,357.2z"/>
					<path class="st15" d="M645.5,358c0,1-0.8,1.8-1.8,1.8s-1.8-0.8-1.8-1.8s0.8-1.8,1.8-1.8S645.5,357,645.5,358z"/>
					<path class="st15" d="M647.2,361.5c0,1-0.8,1.8-1.8,1.8s-1.8-0.8-1.8-1.8s0.8-1.8,1.8-1.8S647.2,360.6,647.2,361.5z"/>
					<path class="st15" d="M657.1,366.8c0,1-0.8,1.8-1.8,1.8s-1.8-0.8-1.8-1.8s0.8-1.8,1.8-1.8S657.1,365.9,657.1,366.8z"/>
					<path class="st15" d="M657.5,367.6c0,1-0.8,1.8-1.8,1.8s-1.8-0.8-1.8-1.8s0.8-1.8,1.8-1.8S657.5,366.7,657.5,367.6z"/>
					<path class="st15" d="M658.4,371.6c0,1-0.8,1.8-1.8,1.8s-1.8-0.8-1.8-1.8s0.8-1.8,1.8-1.8S658.4,370.6,658.4,371.6z"/>
					<path class="st15" d="M663.6,390.2c0,1-0.8,1.8-1.8,1.8s-1.8-0.8-1.8-1.8s0.8-1.8,1.8-1.8S663.6,389.3,663.6,390.2z"/>
					<path class="st15" d="M667.5,395.9c0,1-0.8,1.8-1.8,1.8s-1.8-0.8-1.8-1.8s0.8-1.8,1.8-1.8S667.5,394.9,667.5,395.9z"/>
					<path class="st15" d="M667.9,396.6c0,1-0.8,1.8-1.8,1.8s-1.8-0.8-1.8-1.8s0.8-1.8,1.8-1.8S667.9,395.7,667.9,396.6z"/>
					<path class="st15" d="M670.1,398.2c0,1-0.8,1.8-1.8,1.8s-1.8-0.8-1.8-1.8s0.8-1.8,1.8-1.8S670.1,397.2,670.1,398.2z"/>
					<path class="st15" d="M673.4,406.1c0,1-0.8,1.8-1.8,1.8s-1.8-0.8-1.8-1.8s0.8-1.8,1.8-1.8S673.4,405.1,673.4,406.1z"/>
					<path class="st15" d="M673.4,406.1c0,1-0.8,1.8-1.8,1.8s-1.8-0.8-1.8-1.8s0.8-1.8,1.8-1.8S673.4,405.1,673.4,406.1z"/>
					<path class="st15" d="M677.6,411.2c0,1-0.8,1.8-1.8,1.8s-1.8-0.8-1.8-1.8s0.8-1.8,1.8-1.8S677.6,410.2,677.6,411.2z"/>
					<path class="st15" d="M678.3,412.5c0,1-0.8,1.8-1.8,1.8s-1.8-0.8-1.8-1.8s0.8-1.8,1.8-1.8S678.3,411.6,678.3,412.5z"/>
					<path class="st15" d="M678.8,412.5c0,1-0.8,1.8-1.8,1.8s-1.8-0.8-1.8-1.8s0.8-1.8,1.8-1.8S678.8,411.6,678.8,412.5z"/>
					<path class="st15" d="M681,413.8c0,1-0.8,1.8-1.8,1.8s-1.8-0.8-1.8-1.8s0.8-1.8,1.8-1.8S681,412.8,681,413.8z"/>
				</g>
			</g>
			<g>
				<g>
					<path class="st16" d="M421.4,105.5l0.6,1.5l4,2.7l5.6,0.1l11.5,2.9l1.1,6l0.1,19.9l8.6,0.8l7.8,2l4.8,14l6.8,2.8l1.8,0l0.2,1.2
						l2.8,0.9l2.8,1.4l3,1.6l1.2,2.5l7.8,24.6l15.2,21.5l15.1,0.3l3.3,5.1l13.3,15.6l16.5,10.4l16.7,18.6l0.1,7.1l9.9,70.1l14.3,6.5
						l5.7,5.5l8.6,5.2l14.9,11.4l19.9,0.6L781.3,379l3.8,20.2l2.5,1.3"/>
				</g>
				<g>
					<path class="st17" d="M423.1,105.5c0,1-0.8,1.8-1.8,1.8s-1.8-0.8-1.8-1.8s0.8-1.8,1.8-1.8S423.1,104.6,423.1,105.5z"/>
					<path class="st17" d="M423.8,107c0,1-0.8,1.8-1.8,1.8s-1.8-0.8-1.8-1.8s0.8-1.8,1.8-1.8S423.8,106,423.8,107z"/>
					<path class="st17" d="M427.8,109.7c0,1-0.8,1.8-1.8,1.8s-1.8-0.8-1.8-1.8s0.8-1.8,1.8-1.8S427.8,108.7,427.8,109.7z"/>
					<path class="st17" d="M433.2,109.7c0,1-0.8,1.8-1.8,1.8s-1.8-0.8-1.8-1.8s0.8-1.8,1.8-1.8S433.2,108.8,433.2,109.7z"/>
					<path class="st17" d="M433.3,109.8c0,1-0.8,1.8-1.8,1.8s-1.8-0.8-1.8-1.8s0.8-1.8,1.8-1.8S433.3,108.8,433.3,109.8z"/>
					<path class="st17" d="M433.4,109.8c0,1-0.8,1.8-1.8,1.8s-1.8-0.8-1.8-1.8s0.8-1.8,1.8-1.8S433.4,108.8,433.4,109.8z"/>
					<path class="st17" d="M444.9,112.7c0,1-0.8,1.8-1.8,1.8s-1.8-0.8-1.8-1.8s0.8-1.8,1.8-1.8S444.9,111.7,444.9,112.7z"/>
					<path class="st17" d="M446,118.7c0,1-0.8,1.8-1.8,1.8s-1.8-0.8-1.8-1.8s0.8-1.8,1.8-1.8S446,117.7,446,118.7z"/>
					<path class="st17" d="M446,138.6c0,1-0.8,1.8-1.8,1.8s-1.8-0.8-1.8-1.8s0.8-1.8,1.8-1.8S446,137.6,446,138.6z"/>
					<path class="st17" d="M454.4,138.9c0,1-0.8,1.8-1.8,1.8s-1.8-0.8-1.8-1.8s0.8-1.8,1.8-1.8S454.4,137.9,454.4,138.9z"/>
					<path class="st17" d="M454.7,139.3c0,1-0.8,1.8-1.8,1.8s-1.8-0.8-1.8-1.8s0.8-1.8,1.8-1.8S454.7,138.4,454.7,139.3z"/>
					<path class="st17" d="M462.5,141.4c0,1-0.8,1.8-1.8,1.8s-1.8-0.8-1.8-1.8s0.8-1.8,1.8-1.8S462.5,140.4,462.5,141.4z"/>
					<path class="st17" d="M467.3,155.3c0,1-0.8,1.8-1.8,1.8s-1.8-0.8-1.8-1.8s0.8-1.8,1.8-1.8S467.3,154.4,467.3,155.3z"/>
					<path class="st17" d="M474.1,158.1c0,1-0.8,1.8-1.8,1.8s-1.8-0.8-1.8-1.8s0.8-1.8,1.8-1.8S474.1,157.1,474.1,158.1z"/>
					<path class="st17" d="M474.2,158.1c0,1-0.8,1.8-1.8,1.8s-1.8-0.8-1.8-1.8s0.8-1.8,1.8-1.8S474.2,157.2,474.2,158.1z"/>
					<path class="st17" d="M475.9,158.1c0,1-0.8,1.8-1.8,1.8s-1.8-0.8-1.8-1.8s0.8-1.8,1.8-1.8S475.9,157.2,475.9,158.1z"/>
					<path class="st17" d="M476.2,159.4c0,1-0.8,1.8-1.8,1.8s-1.8-0.8-1.8-1.8s0.8-1.8,1.8-1.8S476.2,158.4,476.2,159.4z"/>
					<path class="st17" d="M478.2,159.9c0,1-0.8,1.8-1.8,1.8s-1.8-0.8-1.8-1.8s0.8-1.8,1.8-1.8S478.2,158.9,478.2,159.9z"/>
					<path class="st17" d="M479,160.1c0,1-0.8,1.8-1.8,1.8s-1.8-0.8-1.8-1.8s0.8-1.8,1.8-1.8S479,159.2,479,160.1z"/>
					<path class="st17" d="M479,160.3c0,1-0.8,1.8-1.8,1.8s-1.8-0.8-1.8-1.8s0.8-1.8,1.8-1.8S479,159.4,479,160.3z"/>
					<path class="st17" d="M481.8,161.8c0,1-0.8,1.8-1.8,1.8s-1.8-0.8-1.8-1.8s0.8-1.8,1.8-1.8S481.8,160.8,481.8,161.8z"/>
					<path class="st17" d="M484.7,163.4c0,1-0.8,1.8-1.8,1.8s-1.8-0.8-1.8-1.8s0.8-1.8,1.8-1.8S484.7,162.4,484.7,163.4z"/>
					<path class="st17" d="M485.9,165.9c0,1-0.8,1.8-1.8,1.8s-1.8-0.8-1.8-1.8s0.8-1.8,1.8-1.8S485.9,165,485.9,165.9z"/>
					<path class="st17" d="M493.7,190.5c0,1-0.8,1.8-1.8,1.8s-1.8-0.8-1.8-1.8s0.8-1.8,1.8-1.8S493.7,189.6,493.7,190.5z"/>
					<path class="st17" d="M508.9,212c0,1-0.8,1.8-1.8,1.8s-1.8-0.8-1.8-1.8s0.8-1.8,1.8-1.8S508.9,211.1,508.9,212z"/>
					<path class="st17" d="M524,212.4c0,1-0.8,1.8-1.8,1.8s-1.8-0.8-1.8-1.8s0.8-1.8,1.8-1.8S524,211.4,524,212.4z"/>
					<path class="st17" d="M527.2,217.5c0,1-0.8,1.8-1.8,1.8c-1,0-1.8-0.8-1.8-1.8s0.8-1.8,1.8-1.8
						C526.4,215.7,527.2,216.5,527.2,217.5z"/>
					<path class="st17" d="M533.7,224.9c0,1-0.8,1.8-1.8,1.8c-1,0-1.8-0.8-1.8-1.8s0.8-1.8,1.8-1.8
						C532.9,223.1,533.7,223.9,533.7,224.9z"/>
					<path class="st17" d="M540.5,233.1c0,1-0.8,1.8-1.8,1.8c-1,0-1.8-0.8-1.8-1.8s0.8-1.8,1.8-1.8
						C539.7,231.3,540.5,232.1,540.5,233.1z"/>
					<path class="st17" d="M557,243.5c0,1-0.8,1.8-1.8,1.8c-1,0-1.8-0.8-1.8-1.8s0.8-1.8,1.8-1.8C556.2,241.7,557,242.5,557,243.5z"
						/>
					<path class="st17" d="M573.7,262c0,1-0.8,1.8-1.8,1.8s-1.8-0.8-1.8-1.8s0.8-1.8,1.8-1.8S573.7,261.1,573.7,262z"/>
					<path class="st17" d="M573.8,269.2c0,1-0.8,1.8-1.8,1.8s-1.8-0.8-1.8-1.8s0.8-1.8,1.8-1.8S573.8,268.2,573.8,269.2z"/>
					<path class="st17" d="M583.7,339.3c0,1-0.8,1.8-1.8,1.8s-1.8-0.8-1.8-1.8s0.8-1.8,1.8-1.8S583.7,338.3,583.7,339.3z"/>
					<path class="st17" d="M597.9,345.7c0,1-0.8,1.8-1.8,1.8s-1.8-0.8-1.8-1.8s0.8-1.8,1.8-1.8S597.9,344.8,597.9,345.7z"/>
					<path class="st17" d="M603.6,351.2c0,1-0.8,1.8-1.8,1.8s-1.8-0.8-1.8-1.8s0.8-1.8,1.8-1.8S603.6,350.2,603.6,351.2z"/>
					<path class="st17" d="M612.2,356.4c0,1-0.8,1.8-1.8,1.8s-1.8-0.8-1.8-1.8s0.8-1.8,1.8-1.8S612.2,355.4,612.2,356.4z"/>
					<path class="st17" d="M612.2,356.4c0,1-0.8,1.8-1.8,1.8s-1.8-0.8-1.8-1.8s0.8-1.8,1.8-1.8S612.2,355.4,612.2,356.4z"/>
					<path class="st17" d="M627.1,367.8c0,1-0.8,1.8-1.8,1.8s-1.8-0.8-1.8-1.8s0.8-1.8,1.8-1.8S627.1,366.8,627.1,367.8z"/>
					<path class="st17" d="M647,368.5c0,1-0.8,1.8-1.8,1.8s-1.8-0.8-1.8-1.8s0.8-1.8,1.8-1.8S647,367.5,647,368.5z"/>
					<path class="st17" d="M783.1,379c0,1-0.8,1.8-1.8,1.8s-1.8-0.8-1.8-1.8s0.8-1.8,1.8-1.8S783.1,378,783.1,379z"/>
					<path class="st17" d="M786.8,399.2c0,1-0.8,1.8-1.8,1.8s-1.8-0.8-1.8-1.8s0.8-1.8,1.8-1.8S786.8,398.2,786.8,399.2z"/>
					<path class="st17" d="M789.4,400.5c0,1-0.8,1.8-1.8,1.8s-1.8-0.8-1.8-1.8s0.8-1.8,1.8-1.8S789.4,399.5,789.4,400.5z"/>
				</g>
			</g>
			<g>
				<g>
					<path class="st18" d="M164.3,36.4l19.9,10.3l6,0l11.4,1.4l35,34.1l0.8,0.1l0,1.1l16.7,39.5l1.6,0.6l15.1,5.2l1.4,5.6l85.9,43.9
						l51.8,22.9l83.4,37l9.6,0.2l18.1,1l6.8,1.5l2.6,2.7l3.2,18.4l9.5,10l18.7,21.8l11.9,18.3l7.2,2.6l0.6,10.2l2.8,17.3l24.2,16.4
						l8.3,21.4l45.5,14l19.2,3.3l14.6,10"/>
				</g>
				<g>
					<path class="st19" d="M166.1,36.4c0,1-0.8,1.8-1.8,1.8s-1.8-0.8-1.8-1.8s0.8-1.8,1.8-1.8S166.1,35.4,166.1,36.4z"/>
					<path class="st19" d="M186,46.7c0,1-0.8,1.8-1.8,1.8s-1.8-0.8-1.8-1.8s0.8-1.8,1.8-1.8S186,45.7,186,46.7z"/>
					<path class="st19" d="M192,46.7c0,1-0.8,1.8-1.8,1.8s-1.8-0.8-1.8-1.8s0.8-1.8,1.8-1.8S192,45.8,192,46.7z"/>
					<path class="st19" d="M203.4,48.2c0,1-0.8,1.8-1.8,1.8s-1.8-0.8-1.8-1.8s0.8-1.8,1.8-1.8S203.4,47.2,203.4,48.2z"/>
					<path class="st19" d="M238.4,82.3c0,1-0.8,1.8-1.8,1.8s-1.8-0.8-1.8-1.8s0.8-1.8,1.8-1.8S238.4,81.3,238.4,82.3z"/>
					<path class="st19" d="M239.1,82.4c0,1-0.8,1.8-1.8,1.8s-1.8-0.8-1.8-1.8s0.8-1.8,1.8-1.8S239.1,81.4,239.1,82.4z"/>
					<path class="st19" d="M239.2,83.5c0,1-0.8,1.8-1.8,1.8s-1.8-0.8-1.8-1.8s0.8-1.8,1.8-1.8S239.2,82.5,239.2,83.5z"/>
					<path class="st19" d="M253.5,116.6c0,1-0.8,1.8-1.8,1.8s-1.8-0.8-1.8-1.8s0.8-1.8,1.8-1.8S253.5,115.6,253.5,116.6z"/>
					<path class="st19" d="M255.9,123c0,1-0.8,1.8-1.8,1.8s-1.8-0.8-1.8-1.8s0.8-1.8,1.8-1.8S255.9,122,255.9,123z"/>
					<path class="st19" d="M257.5,123.6c0,1-0.8,1.8-1.8,1.8s-1.8-0.8-1.8-1.8s0.8-1.8,1.8-1.8S257.5,122.7,257.5,123.6z"/>
					<path class="st19" d="M272.5,128.9c0,1-0.8,1.8-1.8,1.8c-1,0-1.8-0.8-1.8-1.8c0-1,0.8-1.8,1.8-1.8
						C271.7,127.1,272.5,127.9,272.5,128.9z"/>
					<path class="st19" d="M273.9,134.4c0,1-0.8,1.8-1.8,1.8s-1.8-0.8-1.8-1.8s0.8-1.8,1.8-1.8S273.9,133.5,273.9,134.4z"/>
					<path class="st19" d="M351.3,174.6c0,1-0.8,1.8-1.8,1.8s-1.8-0.8-1.8-1.8s0.8-1.8,1.8-1.8S351.3,173.6,351.3,174.6z"/>
					<path class="st19" d="M359.8,178.3c0,1-0.8,1.8-1.8,1.8s-1.8-0.8-1.8-1.8s0.8-1.8,1.8-1.8S359.8,177.4,359.8,178.3z"/>
					<path class="st19" d="M411.6,201.2c0,1-0.8,1.8-1.8,1.8s-1.8-0.8-1.8-1.8s0.8-1.8,1.8-1.8S411.6,200.3,411.6,201.2z"/>
					<path class="st19" d="M495,238.2c0,1-0.8,1.8-1.8,1.8s-1.8-0.8-1.8-1.8s0.8-1.8,1.8-1.8S495,237.3,495,238.2z"/>
					<path class="st19" d="M504.6,238.4c0,1-0.8,1.8-1.8,1.8s-1.8-0.8-1.8-1.8s0.8-1.8,1.8-1.8S504.6,237.5,504.6,238.4z"/>
					<path class="st19" d="M522.7,239.4c0,1-0.8,1.8-1.8,1.8c-1,0-1.8-0.8-1.8-1.8s0.8-1.8,1.8-1.8
						C521.9,237.7,522.7,238.5,522.7,239.4z"/>
					<path class="st19" d="M529.5,240.9c0,1-0.8,1.8-1.8,1.8c-1,0-1.8-0.8-1.8-1.8s0.8-1.8,1.8-1.8
						C528.7,239.2,529.5,239.9,529.5,240.9z"/>
					<path class="st19" d="M532,243.6c0,1-0.8,1.8-1.8,1.8s-1.8-0.8-1.8-1.8s0.8-1.8,1.8-1.8S532,242.6,532,243.6z"/>
					<path class="st19" d="M535.2,262c0,1-0.8,1.8-1.8,1.8s-1.8-0.8-1.8-1.8s0.8-1.8,1.8-1.8S535.2,261,535.2,262z"/>
					<path class="st19" d="M544.8,272c0,1-0.8,1.8-1.8,1.8s-1.8-0.8-1.8-1.8s0.8-1.8,1.8-1.8S544.8,271,544.8,272z"/>
					<path class="st19" d="M563.5,293.8c0,1-0.8,1.8-1.8,1.8s-1.8-0.8-1.8-1.8s0.8-1.8,1.8-1.8S563.5,292.8,563.5,293.8z"/>
					<path class="st19" d="M574.8,311.3c0,1-0.8,1.8-1.8,1.8s-1.8-0.8-1.8-1.8s0.8-1.8,1.8-1.8S574.8,310.3,574.8,311.3z"/>
					<path class="st19" d="M575.4,312c0,1-0.8,1.8-1.8,1.8s-1.8-0.8-1.8-1.8s0.8-1.8,1.8-1.8S575.4,311.1,575.4,312z"/>
					<path class="st19" d="M582.6,314.6c0,1-0.8,1.8-1.8,1.8s-1.8-0.8-1.8-1.8s0.8-1.8,1.8-1.8S582.6,313.6,582.6,314.6z"/>
					<path class="st19" d="M583.2,324.8c0,1-0.8,1.8-1.8,1.8s-1.8-0.8-1.8-1.8s0.8-1.8,1.8-1.8S583.2,323.8,583.2,324.8z"/>
					<path class="st19" d="M586,342.1c0,1-0.8,1.8-1.8,1.8s-1.8-0.8-1.8-1.8s0.8-1.8,1.8-1.8S586,341.1,586,342.1z"/>
					<path class="st19" d="M610.2,358.5c0,1-0.8,1.8-1.8,1.8s-1.8-0.8-1.8-1.8s0.8-1.8,1.8-1.8S610.2,357.5,610.2,358.5z"/>
					<path class="st19" d="M618.5,379.8c0,1-0.8,1.8-1.8,1.8s-1.8-0.8-1.8-1.8s0.8-1.8,1.8-1.8S618.5,378.9,618.5,379.8z"/>
					<path class="st19" d="M664,393.8c0,1-0.8,1.8-1.8,1.8s-1.8-0.8-1.8-1.8s0.8-1.8,1.8-1.8S664,392.9,664,393.8z"/>
					<path class="st19" d="M683.2,397.1c0,1-0.8,1.8-1.8,1.8s-1.8-0.8-1.8-1.8s0.8-1.8,1.8-1.8S683.2,396.1,683.2,397.1z"/>
					<path class="st19" d="M697.8,407.1c0,1-0.8,1.8-1.8,1.8s-1.8-0.8-1.8-1.8s0.8-1.8,1.8-1.8S697.8,406.1,697.8,407.1z"/>
				</g>
			</g>
			<g>
				<g>
					<path class="st20" d="M442.3,117.9l1,3.6l4.7,1.1l1.1,1.1l1.3,4l12.4,6.3l17.7,1l0.6,1.8l3,3.3l3.4,40.5l1.7,2.5l6.4,0.9
						l1.8,4.6l11.1,7.7l2.4,0.1l1.3,1.6l2.3,0.9l9,1.3l3.6,4.5l2.9,1.6l5.7,3l10.7,5.1l0.7,27l32.4,6.7l21.2,17.4l4.1,1.4l12.4,27
						l76,11l10.2,21.5"/>
				</g>
				<g>
					<path class="st21" d="M444.1,117.9c0,1-0.8,1.8-1.8,1.8s-1.8-0.8-1.8-1.8s0.8-1.8,1.8-1.8S444.1,117,444.1,117.9z"/>
					<path class="st21" d="M444.4,121.5c0,1-0.8,1.8-1.8,1.8s-1.8-0.8-1.8-1.8s0.8-1.8,1.8-1.8S444.4,120.5,444.4,121.5z"/>
					<path class="st21" d="M445.1,121.6c0,1-0.8,1.8-1.8,1.8s-1.8-0.8-1.8-1.8s0.8-1.8,1.8-1.8S445.1,120.6,445.1,121.6z"/>
					<path class="st21" d="M449.8,122.7c0,1-0.8,1.8-1.8,1.8s-1.8-0.8-1.8-1.8s0.8-1.8,1.8-1.8S449.8,121.7,449.8,122.7z"/>
					<path class="st21" d="M450.9,123.7c0,1-0.8,1.8-1.8,1.8s-1.8-0.8-1.8-1.8s0.8-1.8,1.8-1.8S450.9,122.8,450.9,123.7z"/>
					<path class="st21" d="M452.1,127.7c0,1-0.8,1.8-1.8,1.8s-1.8-0.8-1.8-1.8s0.8-1.8,1.8-1.8S452.1,126.8,452.1,127.7z"/>
					<path class="st21" d="M452.9,128.2c0,1-0.8,1.8-1.8,1.8s-1.8-0.8-1.8-1.8c0-1,0.8-1.8,1.8-1.8S452.9,127.2,452.9,128.2z"/>
					<path class="st21" d="M464.5,134c0,1-0.8,1.8-1.8,1.8S461,135,461,134s0.8-1.8,1.8-1.8S464.5,133,464.5,134z"/>
					<path class="st21" d="M482.2,135c0,1-0.8,1.8-1.8,1.8s-1.8-0.8-1.8-1.8s0.8-1.8,1.8-1.8S482.2,134.1,482.2,135z"/>
					<path class="st21" d="M482.9,136.8c0,1-0.8,1.8-1.8,1.8s-1.8-0.8-1.8-1.8s0.8-1.8,1.8-1.8S482.9,135.9,482.9,136.8z"/>
					<path class="st21" d="M485.8,140.1c0,1-0.8,1.8-1.8,1.8s-1.8-0.8-1.8-1.8s0.8-1.8,1.8-1.8S485.8,139.1,485.8,140.1z"/>
					<path class="st21" d="M489.3,180.6c0,1-0.8,1.8-1.8,1.8s-1.8-0.8-1.8-1.8s0.8-1.8,1.8-1.8S489.3,179.6,489.3,180.6z"/>
					<path class="st21" d="M491,183.1c0,1-0.8,1.8-1.8,1.8s-1.8-0.8-1.8-1.8s0.8-1.8,1.8-1.8S491,182.1,491,183.1z"/>
					<path class="st21" d="M497.4,184c0,1-0.8,1.8-1.8,1.8s-1.8-0.8-1.8-1.8s0.8-1.8,1.8-1.8S497.4,183,497.4,184z"/>
					<path class="st21" d="M499.2,188.6c0,1-0.8,1.8-1.8,1.8s-1.8-0.8-1.8-1.8s0.8-1.8,1.8-1.8S499.2,187.6,499.2,188.6z"/>
					<path class="st21" d="M504.8,192.2c0,1-0.8,1.8-1.8,1.8s-1.8-0.8-1.8-1.8s0.8-1.8,1.8-1.8S504.8,191.2,504.8,192.2z"/>
					<path class="st21" d="M509,195.6c0,1-0.8,1.8-1.8,1.8s-1.8-0.8-1.8-1.8s0.8-1.8,1.8-1.8S509,194.7,509,195.6z"/>
					<path class="st21" d="M510.3,196.3c0,1-0.8,1.8-1.8,1.8s-1.8-0.8-1.8-1.8s0.8-1.8,1.8-1.8S510.3,195.3,510.3,196.3z"/>
					<path class="st21" d="M512.7,196.4c0,1-0.8,1.8-1.7,1.8s-1.8-0.8-1.8-1.8s0.8-1.8,1.8-1.8S512.7,195.5,512.7,196.4z"/>
					<path class="st21" d="M514,198c0,1-0.8,1.8-1.8,1.8c-1,0-1.8-0.8-1.8-1.8s0.8-1.8,1.8-1.8C513.3,196.3,514,197.1,514,198z"/>
					<path class="st21" d="M516.4,199c0,1-0.8,1.8-1.8,1.8s-1.8-0.8-1.8-1.8s0.8-1.8,1.8-1.8S516.4,198,516.4,199z"/>
					<path class="st21" d="M524,199.7c0,1-0.8,1.8-1.8,1.8c-1,0-1.8-0.8-1.8-1.8s0.8-1.8,1.8-1.8C523.2,197.9,524,198.7,524,199.7z"
						/>
					<path class="st21" d="M525.3,200.2c0,1-0.8,1.8-1.8,1.8c-1,0-1.8-0.8-1.8-1.8s0.8-1.8,1.8-1.8
						C524.6,198.5,525.3,199.3,525.3,200.2z"/>
					<path class="st21" d="M528.9,204.7c0,1-0.8,1.8-1.8,1.8c-1,0-1.8-0.8-1.8-1.8s0.8-1.8,1.8-1.8
						C528.1,202.9,528.9,203.7,528.9,204.7z"/>
					<path class="st21" d="M529.8,205.3c0,1-0.8,1.8-1.8,1.8s-1.8-0.8-1.8-1.8s0.8-1.8,1.8-1.8S529.8,204.3,529.8,205.3z"/>
					<path class="st21" d="M531.8,206.3c0,1-0.8,1.8-1.8,1.8c-1,0-1.8-0.8-1.8-1.8s0.8-1.8,1.8-1.8
						C531.1,204.6,531.8,205.4,531.8,206.3z"/>
					<path class="st21" d="M537.5,209.3c0,1-0.8,1.8-1.8,1.8s-1.8-0.8-1.8-1.8s0.8-1.8,1.8-1.8S537.5,208.3,537.5,209.3z"/>
					<path class="st21" d="M542.7,212c0,1-0.8,1.8-1.8,1.8c-1,0-1.8-0.8-1.8-1.8s0.8-1.8,1.8-1.8C541.9,210.2,542.7,211,542.7,212z"
						/>
					<path class="st21" d="M544.8,212.8c0,1-0.8,1.8-1.8,1.8s-1.8-0.8-1.8-1.8s0.8-1.8,1.8-1.8S544.8,211.8,544.8,212.8z"/>
					<path class="st21" d="M548.2,214.4c0,1-0.8,1.8-1.8,1.8s-1.8-0.8-1.8-1.8s0.8-1.8,1.8-1.8S548.2,213.5,548.2,214.4z"/>
					<path class="st21" d="M548.9,241.5c0,1-0.8,1.8-1.8,1.8c-1,0-1.8-0.8-1.8-1.8s0.8-1.8,1.8-1.8
						C548.1,239.7,548.9,240.5,548.9,241.5z"/>
					<path class="st21" d="M581.3,248.1c0,1-0.8,1.8-1.8,1.8s-1.8-0.8-1.8-1.8s0.8-1.8,1.8-1.8S581.3,247.2,581.3,248.1z"/>
					<path class="st21" d="M602.5,265.6c0,1-0.8,1.8-1.8,1.8s-1.8-0.8-1.8-1.8s0.8-1.8,1.8-1.8S602.5,264.6,602.5,265.6z"/>
					<path class="st21" d="M606.7,267c0,1-0.8,1.8-1.8,1.8s-1.8-0.8-1.8-1.8s0.8-1.8,1.8-1.8S606.7,266.1,606.7,267z"/>
					<path class="st21" d="M619.1,294c0,1-0.8,1.8-1.8,1.8s-1.8-0.8-1.8-1.8s0.8-1.8,1.8-1.8S619.1,293,619.1,294z"/>
					<path class="st21" d="M695.1,305c0,1-0.8,1.8-1.8,1.8s-1.8-0.8-1.8-1.8s0.8-1.8,1.8-1.8S695.1,304,695.1,305z"/>
					<path class="st21" d="M705.3,326.5c0,1-0.8,1.8-1.8,1.8s-1.8-0.8-1.8-1.8s0.8-1.8,1.8-1.8S705.3,325.5,705.3,326.5z"/>
				</g>
			</g>
			<g>
				<g>
					<path class="st22" d="M482.6,196.7l46.7,63.2l80.5,27.9l0.9,10.6l17.4,27.6l26.8,10.2l44.8,19.5l26.1,0.6l0.2,26.2l1.8,8.3
						l0.4,19.5"/>
				</g>
				<g>
					<path class="st23" d="M484.4,196.7c0,1-0.8,1.8-1.8,1.8s-1.8-0.8-1.8-1.8s0.8-1.8,1.8-1.8S484.4,195.8,484.4,196.7z"/>
					<path class="st23" d="M531.1,260c0,1-0.8,1.8-1.8,1.8c-1,0-1.8-0.8-1.8-1.8s0.8-1.8,1.8-1.8C530.3,258.2,531.1,259,531.1,260z"
						/>
					<path class="st23" d="M611.6,287.9c0,1-0.8,1.8-1.8,1.8s-1.8-0.8-1.8-1.8s0.8-1.8,1.8-1.8S611.6,286.9,611.6,287.9z"/>
					<path class="st23" d="M612.4,298.5c0,1-0.8,1.8-1.8,1.8s-1.8-0.8-1.8-1.8s0.8-1.8,1.8-1.8S612.4,297.5,612.4,298.5z"/>
					<path class="st23" d="M629.8,326.1c0,1-0.8,1.8-1.8,1.8s-1.8-0.8-1.8-1.8s0.8-1.8,1.8-1.8S629.8,325.1,629.8,326.1z"/>
					<path class="st23" d="M656.6,336.3c0,1-0.8,1.8-1.8,1.8s-1.8-0.8-1.8-1.8s0.8-1.8,1.8-1.8S656.6,335.3,656.6,336.3z"/>
					<path class="st23" d="M701.4,355.8c0,1-0.8,1.8-1.8,1.8s-1.8-0.8-1.8-1.8s0.8-1.8,1.8-1.8S701.4,354.8,701.4,355.8z"/>
					<path class="st23" d="M727.5,356.4c0,1-0.8,1.8-1.8,1.8s-1.8-0.8-1.8-1.8s0.8-1.8,1.8-1.8S727.5,355.5,727.5,356.4z"/>
					<path class="st23" d="M727.8,382.6c0,1-0.8,1.8-1.8,1.8s-1.8-0.8-1.8-1.8s0.8-1.8,1.8-1.8S727.8,381.6,727.8,382.6z"/>
					<path class="st23" d="M729.2,387.2c0,1-0.8,1.8-1.8,1.8s-1.8-0.8-1.8-1.8s0.8-1.8,1.8-1.8S729.2,386.3,729.2,387.2z"/>
					<path class="st23" d="M729.6,390.9c0,1-0.8,1.8-1.8,1.8s-1.8-0.8-1.8-1.8s0.8-1.8,1.8-1.8S729.6,390,729.6,390.9z"/>
					<path class="st23" d="M730,410.4c0,1-0.8,1.8-1.8,1.8s-1.8-0.8-1.8-1.8s0.8-1.8,1.8-1.8S730,409.5,730,410.4z"/>
				</g>
			</g>
			<g>
				<g>
					<path class="st24" d="M463,124.1l19.2,71.3l14,17.2l6.5,64.6l97.9,59.2l51.8,34.6l73.7,3.9"/>
				</g>
				<g>
					<path class="st25" d="M464.7,124.1c0,1-0.8,1.8-1.8,1.8s-1.8-0.8-1.8-1.8s0.8-1.8,1.8-1.8S464.7,123.1,464.7,124.1z"/>
					<path class="st25" d="M483.9,195.4c0,1-0.8,1.8-1.8,1.8s-1.8-0.8-1.8-1.8s0.8-1.8,1.8-1.8S483.9,194.4,483.9,195.4z"/>
					<path class="st25" d="M497.9,212.5c0,1-0.8,1.8-1.8,1.8s-1.8-0.8-1.8-1.8s0.8-1.8,1.8-1.8S497.9,211.6,497.9,212.5z"/>
					<path class="st25" d="M504.5,277.1c0,1-0.8,1.8-1.8,1.8s-1.8-0.8-1.8-1.8s0.8-1.8,1.8-1.8S504.5,276.2,504.5,277.1z"/>
					<path class="st25" d="M602.4,336.4c0,1-0.8,1.8-1.8,1.8s-1.8-0.8-1.8-1.8s0.8-1.8,1.8-1.8S602.4,335.4,602.4,336.4z"/>
					<path class="st25" d="M654.2,371c0,1-0.8,1.8-1.8,1.8s-1.8-0.8-1.8-1.8s0.8-1.8,1.8-1.8S654.2,370,654.2,371z"/>
					<path class="st25" d="M727.9,374.9c0,1-0.8,1.8-1.8,1.8s-1.8-0.8-1.8-1.8s0.8-1.8,1.8-1.8S727.9,373.9,727.9,374.9z"/>
				</g>
			</g>
			<g>
				<g>
					<path class="st26" d="M194.6,171.7l260.4,109l110.4,11.1l7.8,24.4l53.3,9.2l36.5,28.3l33.7,7.2l25.8,11.4l2,6.9l3.5,22.2l0,0.9
						L728,420"/>
				</g>
				<g>
					<path class="st27" d="M196.3,171.7c0,1-0.8,1.8-1.8,1.8s-1.8-0.8-1.8-1.8s0.8-1.8,1.8-1.8S196.3,170.8,196.3,171.7z"/>
					<path class="st27" d="M445.3,276.4c0,1-0.8,1.8-1.8,1.8s-1.8-0.8-1.8-1.8s0.8-1.8,1.8-1.8S445.3,275.4,445.3,276.4z"/>
					<path class="st27" d="M456.7,280.7c0,1-0.8,1.8-1.8,1.8s-1.8-0.8-1.8-1.8s0.8-1.8,1.8-1.8S456.7,279.7,456.7,280.7z"/>
					<path class="st27" d="M567,291.8c0,1-0.8,1.8-1.8,1.8s-1.8-0.8-1.8-1.8s0.8-1.8,1.8-1.8S567,290.8,567,291.8z"/>
					<path class="st27" d="M574.8,316.2c0,1-0.8,1.8-1.8,1.8s-1.8-0.8-1.8-1.8s0.8-1.8,1.8-1.8S574.8,315.2,574.8,316.2z"/>
					<path class="st27" d="M628,325.4c0,1-0.8,1.8-1.8,1.8s-1.8-0.8-1.8-1.8s0.8-1.8,1.8-1.8S628,324.4,628,325.4z"/>
					<path class="st27" d="M664.5,353.7c0,1-0.8,1.8-1.8,1.8s-1.8-0.8-1.8-1.8s0.8-1.8,1.8-1.8S664.5,352.7,664.5,353.7z"/>
					<path class="st27" d="M698.2,360.9c0,1-0.8,1.8-1.8,1.8s-1.8-0.8-1.8-1.8s0.8-1.8,1.8-1.8S698.2,359.9,698.2,360.9z"/>
					<path class="st27" d="M724,372.4c0,1-0.8,1.8-1.8,1.8s-1.8-0.8-1.8-1.8s0.8-1.8,1.8-1.8S724,371.4,724,372.4z"/>
					<path class="st27" d="M726,379.3c0,1-0.8,1.8-1.8,1.8s-1.8-0.8-1.8-1.8s0.8-1.8,1.8-1.8S726,378.3,726,379.3z"/>
					<path class="st27" d="M729.5,398.2c0,1-0.8,1.8-1.8,1.8s-1.8-0.8-1.8-1.8s0.8-1.8,1.8-1.8S729.5,397.3,729.5,398.2z"/>
					<path class="st27" d="M729.5,401.5c0,1-0.8,1.8-1.8,1.8s-1.8-0.8-1.8-1.8s0.8-1.8,1.8-1.8S729.5,400.5,729.5,401.5z"/>
					<path class="st27" d="M729.5,402.4c0,1-0.8,1.8-1.8,1.8s-1.8-0.8-1.8-1.8s0.8-1.8,1.8-1.8S729.5,401.4,729.5,402.4z"/>
					<path class="st27" d="M729.5,402.5c0,1-0.8,1.8-1.8,1.8s-1.8-0.8-1.8-1.8s0.8-1.8,1.8-1.8S729.5,401.5,729.5,402.5z"/>
					<path class="st27" d="M729.5,403c0,1-0.8,1.8-1.8,1.8s-1.8-0.8-1.8-1.8s0.8-1.8,1.8-1.8S729.5,402,729.5,403z"/>
					<path class="st27" d="M729.5,404.1c0,1-0.8,1.8-1.8,1.8s-1.8-0.8-1.8-1.8s0.8-1.8,1.8-1.8S729.5,403.2,729.5,404.1z"/>
					<path class="st27" d="M729.6,411.1c0,1-0.8,1.8-1.8,1.8s-1.8-0.8-1.8-1.8s0.8-1.8,1.8-1.8S729.6,410.1,729.6,411.1z"/>
					<path class="st27" d="M729.6,411.1c0,1-0.8,1.8-1.8,1.8s-1.8-0.8-1.8-1.8s0.8-1.8,1.8-1.8S729.6,410.2,729.6,411.1z"/>
					<path class="st27" d="M729.6,415c0,1-0.8,1.8-1.8,1.8s-1.8-0.8-1.8-1.8s0.8-1.8,1.8-1.8S729.6,414,729.6,415z"/>
					<path class="st27" d="M729.7,417.3c0,1-0.8,1.8-1.8,1.8s-1.8-0.8-1.8-1.8s0.8-1.8,1.8-1.8S729.7,416.3,729.7,417.3z"/>
					<path class="st27" d="M729.7,419.7c0,1-0.8,1.8-1.8,1.8s-1.8-0.8-1.8-1.8s0.8-1.8,1.8-1.8S729.7,418.8,729.7,419.7z"/>
					<path class="st27" d="M729.7,419.9c0,1-0.8,1.8-1.8,1.8s-1.8-0.8-1.8-1.8s0.8-1.8,1.8-1.8S729.7,418.9,729.7,419.9z"/>
					<path class="st27" d="M729.7,419.9c0,1-0.8,1.8-1.8,1.8s-1.8-0.8-1.8-1.8s0.8-1.8,1.8-1.8S729.7,419,729.7,419.9z"/>
					<path class="st27" d="M729.7,420c0,1-0.8,1.8-1.8,1.8s-1.8-0.8-1.8-1.8s0.8-1.8,1.8-1.8S729.7,419,729.7,420z"/>
				</g>
			</g>
			<g>
				<g>
					<path class="st28" d="M452.6,151.8l13.1,21.5l0.8,3l14.6,28l11.1,3.3l13.8,3.9l0.9,2.1l9.8,0.8l2.9,15.9l26.9,17.4l18.2,1.2
						l7.3,0.5l5.4,41l7.3,6l16.2,34.4l22.5,22.6l6.7,9.8l13.8,0.3l3.9,11.8l55.1,5.3l16.6,15.6"/>
				</g>
				<g>
					<path class="st29" d="M454.4,151.8c0,1-0.8,1.8-1.8,1.8s-1.8-0.8-1.8-1.8s0.8-1.8,1.8-1.8S454.4,150.8,454.4,151.8z"/>
					<path class="st29" d="M467.5,173.3c0,1-0.8,1.8-1.8,1.8s-1.8-0.8-1.8-1.8s0.8-1.8,1.8-1.8S467.5,172.3,467.5,173.3z"/>
					<path class="st29" d="M468.3,176.3c0,1-0.8,1.8-1.8,1.8s-1.8-0.8-1.8-1.8s0.8-1.8,1.8-1.8S468.3,175.3,468.3,176.3z"/>
					<path class="st29" d="M482.9,204.3c0,1-0.8,1.8-1.8,1.8s-1.8-0.8-1.8-1.8s0.8-1.8,1.8-1.8S482.9,203.3,482.9,204.3z"/>
					<path class="st29" d="M494,207.6c0,1-0.8,1.8-1.8,1.8s-1.8-0.8-1.8-1.8s0.8-1.8,1.8-1.8S494,206.7,494,207.6z"/>
					<path class="st29" d="M503.7,210.6c0,1-0.8,1.8-1.8,1.8s-1.8-0.8-1.8-1.8s0.8-1.8,1.8-1.8S503.7,209.7,503.7,210.6z"/>
					<path class="st29" d="M507.8,211.6c0,1-0.8,1.8-1.8,1.8s-1.8-0.8-1.8-1.8s0.8-1.8,1.8-1.8S507.8,210.6,507.8,211.6z"/>
					<path class="st29" d="M508.7,213.7c0,1-0.8,1.8-1.8,1.8s-1.8-0.8-1.8-1.8s0.8-1.8,1.8-1.8S508.7,212.7,508.7,213.7z"/>
					<path class="st29" d="M518.5,214.5c0,1-0.8,1.8-1.8,1.8c-1,0-1.8-0.8-1.8-1.8s0.8-1.8,1.8-1.8
						C517.7,212.8,518.5,213.5,518.5,214.5z"/>
					<path class="st29" d="M521.4,230.4c0,1-0.8,1.8-1.8,1.8c-1,0-1.8-0.8-1.8-1.8s0.8-1.8,1.8-1.8
						C520.6,228.7,521.4,229.5,521.4,230.4z"/>
					<path class="st29" d="M548.3,247.8c0,1-0.8,1.8-1.8,1.8s-1.8-0.8-1.8-1.8s0.8-1.8,1.8-1.8S548.3,246.8,548.3,247.8z"/>
					<path class="st29" d="M566.5,249c0,1-0.8,1.8-1.8,1.8S563,250,563,249s0.8-1.8,1.8-1.8S566.5,248.1,566.5,249z"/>
					<path class="st29" d="M573.8,249.6c0,1-0.8,1.8-1.8,1.8s-1.8-0.8-1.8-1.8s0.8-1.8,1.8-1.8S573.8,248.6,573.8,249.6z"/>
					<path class="st29" d="M579.3,290.6c0,1-0.8,1.8-1.8,1.8s-1.8-0.8-1.8-1.8s0.8-1.8,1.8-1.8S579.3,289.6,579.3,290.6z"/>
					<path class="st29" d="M586.6,296.6c0,1-0.8,1.8-1.8,1.8s-1.8-0.8-1.8-1.8s0.8-1.8,1.8-1.8S586.6,295.6,586.6,296.6z"/>
					<path class="st29" d="M602.8,331c0,1-0.8,1.8-1.8,1.8s-1.8-0.8-1.8-1.8s0.8-1.8,1.8-1.8S602.8,330,602.8,331z"/>
					<path class="st29" d="M625.3,353.6c0,1-0.8,1.8-1.8,1.8s-1.8-0.8-1.8-1.8s0.8-1.8,1.8-1.8S625.3,352.6,625.3,353.6z"/>
					<path class="st29" d="M632,363.4c0,1-0.8,1.8-1.8,1.8s-1.8-0.8-1.8-1.8s0.8-1.8,1.8-1.8S632,362.4,632,363.4z"/>
					<path class="st29" d="M645.8,363.7c0,1-0.8,1.8-1.8,1.8s-1.8-0.8-1.8-1.8s0.8-1.8,1.8-1.8S645.8,362.7,645.8,363.7z"/>
					<path class="st29" d="M649.8,375.5c0,1-0.8,1.8-1.8,1.8s-1.8-0.8-1.8-1.8s0.8-1.8,1.8-1.8S649.8,374.5,649.8,375.5z"/>
					<path class="st29" d="M704.8,380.8c0,1-0.8,1.8-1.8,1.8s-1.8-0.8-1.8-1.8s0.8-1.8,1.8-1.8S704.8,379.8,704.8,380.8z"/>
					<path class="st29" d="M721.4,396.4c0,1-0.8,1.8-1.8,1.8s-1.8-0.8-1.8-1.8s0.8-1.8,1.8-1.8S721.4,395.4,721.4,396.4z"/>
				</g>
			</g>
			<g>
				<g>
					<path class="st30" d="M464.4,232.2l68.6,1.9l17.3,14.5l13.4,12.5l14.3,7.8l2,92.4l47.9,0.9l49.9,13.4l46.5,11.1"/>
				</g>
				<g>
					<path class="st31" d="M466.1,232.2c0,1-0.8,1.8-1.8,1.8s-1.8-0.8-1.8-1.8s0.8-1.8,1.8-1.8S466.1,231.3,466.1,232.2z"/>
					<path class="st31" d="M534.8,234.1c0,1-0.8,1.8-1.8,1.8s-1.8-0.8-1.8-1.8s0.8-1.8,1.8-1.8S534.8,233.1,534.8,234.1z"/>
					<path class="st31" d="M552.1,248.6c0,1-0.8,1.8-1.8,1.8c-1,0-1.8-0.8-1.8-1.8s0.8-1.8,1.8-1.8
						C551.3,246.8,552.1,247.6,552.1,248.6z"/>
					<path class="st31" d="M565.5,261.1c0,1-0.8,1.8-1.8,1.8c-1,0-1.8-0.8-1.8-1.8s0.8-1.8,1.8-1.8
						C564.8,259.3,565.5,260.1,565.5,261.1z"/>
					<path class="st31" d="M579.8,268.8c0,1-0.8,1.8-1.8,1.8s-1.8-0.8-1.8-1.8s0.8-1.8,1.8-1.8S579.8,267.9,579.8,268.8z"/>
					<path class="st31" d="M581.8,361.2c0,1-0.8,1.8-1.8,1.8s-1.8-0.8-1.8-1.8s0.8-1.8,1.8-1.8S581.8,360.3,581.8,361.2z"/>
					<path class="st31" d="M629.7,362.1c0,1-0.8,1.8-1.8,1.8s-1.8-0.8-1.8-1.8s0.8-1.8,1.8-1.8S629.7,361.1,629.7,362.1z"/>
					<path class="st31" d="M679.7,375.5c0,1-0.8,1.8-1.8,1.8s-1.8-0.8-1.8-1.8s0.8-1.8,1.8-1.8S679.7,374.5,679.7,375.5z"/>
					<path class="st31" d="M726.2,386.5c0,1-0.8,1.8-1.8,1.8s-1.8-0.8-1.8-1.8s0.8-1.8,1.8-1.8S726.2,385.6,726.2,386.5z"/>
				</g>
			</g>
			<g>
				<g>
					<path class="st32" d="M474.2,196.9l19.6,10.3l18.1,5.3l7.3,11.9l13.9,8.2l32.8,8.5l3.7,7.4l4.1,85.9l17.2,46.2l59.9,5.2
						l74.3,0.7l1.1,28.3l68,5.2"/>
				</g>
				<g>
					<path class="st33" d="M476,196.9c0,1-0.8,1.8-1.8,1.8s-1.8-0.8-1.8-1.8s0.8-1.8,1.8-1.8S476,196,476,196.9z"/>
					<path class="st33" d="M495.6,207.2c0,1-0.8,1.8-1.8,1.8s-1.8-0.8-1.8-1.8s0.8-1.8,1.8-1.8S495.6,206.2,495.6,207.2z"/>
					<path class="st33" d="M513.7,212.5c0,1-0.8,1.8-1.8,1.8s-1.8-0.8-1.8-1.8s0.8-1.8,1.8-1.8S513.7,211.6,513.7,212.5z"/>
					<path class="st33" d="M521,224.5c0,1-0.8,1.8-1.8,1.8c-1,0-1.8-0.8-1.8-1.8s0.8-1.8,1.8-1.8C520.2,222.7,521,223.5,521,224.5z"
						/>
					<path class="st33" d="M534.9,232.7c0,1-0.8,1.8-1.8,1.8s-1.8-0.8-1.8-1.8s0.8-1.8,1.8-1.8S534.9,231.7,534.9,232.7z"/>
					<path class="st33" d="M567.7,241.2c0,1-0.8,1.8-1.8,1.8s-1.8-0.8-1.8-1.8s0.8-1.8,1.8-1.8S567.7,240.3,567.7,241.2z"/>
					<path class="st33" d="M571.4,248.6c0,1-0.8,1.8-1.8,1.8s-1.8-0.8-1.8-1.8s0.8-1.8,1.8-1.8S571.4,247.7,571.4,248.6z"/>
					<path class="st33" d="M575.5,334.5c0,1-0.8,1.8-1.8,1.8s-1.8-0.8-1.8-1.8s0.8-1.8,1.8-1.8S575.5,333.6,575.5,334.5z"/>
					<path class="st33" d="M592.7,380.7c0,1-0.8,1.8-1.8,1.8s-1.8-0.8-1.8-1.8s0.8-1.8,1.8-1.8S592.7,379.7,592.7,380.7z"/>
					<path class="st33" d="M652.6,385.9c0,1-0.8,1.8-1.8,1.8s-1.8-0.8-1.8-1.8s0.8-1.8,1.8-1.8S652.6,384.9,652.6,385.9z"/>
					<path class="st33" d="M726.9,386.5c0,1-0.8,1.8-1.8,1.8s-1.8-0.8-1.8-1.8s0.8-1.8,1.8-1.8S726.9,385.6,726.9,386.5z"/>
					<path class="st33" d="M728,414.8c0,1-0.8,1.8-1.8,1.8s-1.8-0.8-1.8-1.8s0.8-1.8,1.8-1.8S728,413.8,728,414.8z"/>
					<path class="st33" d="M796,420c0,1-0.8,1.8-1.8,1.8s-1.8-0.8-1.8-1.8s0.8-1.8,1.8-1.8S796,419,796,420z"/>
				</g>
			</g>
			<g>
				<g>
					<path class="st34" d="M246.3,196.2L488.5,352l13.3,0.1l167.3,18.1l61.3,9.4l70.7,19.1l11.4,5.5l13.7,1.7"/>
				</g>
				<g>
					<path class="st35" d="M248,196.2c0,1-0.8,1.8-1.8,1.8s-1.8-0.8-1.8-1.8s0.8-1.8,1.8-1.8S248,195.2,248,196.2z"/>
					<path class="st35" d="M490.3,352c0,1-0.8,1.8-1.8,1.8s-1.8-0.8-1.8-1.8s0.8-1.8,1.8-1.8S490.3,351.1,490.3,352z"/>
					<path class="st35" d="M503.6,352.1c0,1-0.8,1.8-1.8,1.8s-1.8-0.8-1.8-1.8s0.8-1.8,1.8-1.8S503.6,351.1,503.6,352.1z"/>
					<path class="st35" d="M670.9,370.2c0,1-0.8,1.8-1.8,1.8s-1.8-0.8-1.8-1.8s0.8-1.8,1.8-1.8S670.9,369.2,670.9,370.2z"/>
					<path class="st35" d="M732.2,379.6c0,1-0.8,1.8-1.8,1.8s-1.8-0.8-1.8-1.8s0.8-1.8,1.8-1.8S732.2,378.6,732.2,379.6z"/>
					<path class="st35" d="M802.9,398.7c0,1-0.8,1.8-1.8,1.8s-1.8-0.8-1.8-1.8s0.8-1.8,1.8-1.8S802.9,397.7,802.9,398.7z"/>
					<path class="st35" d="M814.3,404.2c0,1-0.8,1.8-1.8,1.8s-1.8-0.8-1.8-1.8s0.8-1.8,1.8-1.8S814.3,403.2,814.3,404.2z"/>
					<path class="st35" d="M828,405.9c0,1-0.8,1.8-1.8,1.8s-1.8-0.8-1.8-1.8s0.8-1.8,1.8-1.8S828,404.9,828,405.9z"/>
				</g>
			</g>
			<g>
				<g>
					<path class="st36" d="M455,197.1l20.2,13.7l54.4,43.6l55.7,6l21.5,4.8l7.1,35.4l3.4,11.8l12,42.4l32.5,30.4l64.5,12.5"/>
				</g>
				<g>
					<path class="st37" d="M456.7,197.1c0,1-0.8,1.8-1.8,1.8s-1.8-0.8-1.8-1.8s0.8-1.8,1.8-1.8S456.7,196.1,456.7,197.1z"/>
					<path class="st37" d="M476.9,210.8c0,1-0.8,1.8-1.8,1.8s-1.8-0.8-1.8-1.8s0.8-1.8,1.8-1.8S476.9,209.8,476.9,210.8z"/>
					<path class="st37" d="M531.3,254.3c0,1-0.8,1.8-1.8,1.8c-1,0-1.8-0.8-1.8-1.8s0.8-1.8,1.8-1.8
						C530.5,252.6,531.3,253.4,531.3,254.3z"/>
					<path class="st37" d="M587,260.3c0,1-0.8,1.8-1.8,1.8s-1.8-0.8-1.8-1.8s0.8-1.8,1.8-1.8S587,259.4,587,260.3z"/>
					<path class="st37" d="M608.5,265.1c0,1-0.8,1.8-1.8,1.8s-1.8-0.8-1.8-1.8s0.8-1.8,1.8-1.8S608.5,264.2,608.5,265.1z"/>
					<path class="st37" d="M615.6,300.5c0,1-0.8,1.8-1.8,1.8s-1.8-0.8-1.8-1.8s0.8-1.8,1.8-1.8S615.6,299.6,615.6,300.5z"/>
					<path class="st37" d="M619,312.4c0,1-0.8,1.8-1.8,1.8s-1.8-0.8-1.8-1.8s0.8-1.8,1.8-1.8S619,311.4,619,312.4z"/>
					<path class="st37" d="M630.9,354.8c0,1-0.8,1.8-1.8,1.8s-1.8-0.8-1.8-1.8s0.8-1.8,1.8-1.8S630.9,353.8,630.9,354.8z"/>
					<path class="st37" d="M663.5,385.2c0,1-0.8,1.8-1.8,1.8s-1.8-0.8-1.8-1.8s0.8-1.8,1.8-1.8S663.5,384.3,663.5,385.2z"/>
					<path class="st37" d="M728,397.8c0,1-0.8,1.8-1.8,1.8s-1.8-0.8-1.8-1.8s0.8-1.8,1.8-1.8S728,396.8,728,397.8z"/>
				</g>
			</g>
			<g>
				<g>
					<path class="st38" d="M331.9,192.8l109.8,57.7l38.8,56.5l19.7,41.6l146.6,0.2l56.9,27.1l24.1,34.5l83.2,8.7"/>
				</g>
				<g>
					<path class="st39" d="M333.6,192.8c0,1-0.8,1.8-1.8,1.8s-1.8-0.8-1.8-1.8s0.8-1.8,1.8-1.8S333.6,191.9,333.6,192.8z"/>
					<path class="st39" d="M443.5,250.5c0,1-0.8,1.8-1.8,1.8s-1.8-0.8-1.8-1.8s0.8-1.8,1.8-1.8S443.5,249.5,443.5,250.5z"/>
					<path class="st39" d="M482.2,307c0,1-0.8,1.8-1.8,1.8s-1.8-0.8-1.8-1.8s0.8-1.8,1.8-1.8S482.2,306.1,482.2,307z"/>
					<path class="st39" d="M502,348.7c0,1-0.8,1.8-1.8,1.8s-1.8-0.8-1.8-1.8s0.8-1.8,1.8-1.8S502,347.7,502,348.7z"/>
					<path class="st39" d="M648.6,348.9c0,1-0.8,1.8-1.8,1.8s-1.8-0.8-1.8-1.8s0.8-1.8,1.8-1.8S648.6,347.9,648.6,348.9z"/>
					<path class="st39" d="M705.5,376c0,1-0.8,1.8-1.8,1.8s-1.8-0.8-1.8-1.8s0.8-1.8,1.8-1.8S705.5,375,705.5,376z"/>
					<path class="st39" d="M729.6,410.5c0,1-0.8,1.8-1.8,1.8s-1.8-0.8-1.8-1.8s0.8-1.8,1.8-1.8S729.6,409.5,729.6,410.5z"/>
					<path class="st39" d="M812.8,419.2c0,1-0.8,1.8-1.8,1.8s-1.8-0.8-1.8-1.8s0.8-1.8,1.8-1.8S812.8,418.3,812.8,419.2z"/>
				</g>
			</g>
			<g>
				<g>
					<g>
						<line class="st40" x1="57.9" y1="20.1" x2="58.3" y2="23.6"/>
						<line class="st41" x1="59.1" y1="30.4" x2="78.2" y2="203.5"/>
						<polyline class="st40" points="78.6,206.9 78.9,210.4 82.4,210.8 						"/>
						<polyline class="st42" points="89.3,211.8 114.7,215.2 119.6,215.3 259.6,216.6 352.7,220 367.4,234.3 393.6,267.9 
							402.9,350.2 403.8,351.9 403.9,355.8 						"/>
						<polyline class="st40" points="404,359.3 404.1,362.8 407.6,362.9 						"/>
						<line class="st43" x1="414.7" y1="363.1" x2="581.2" y2="368.2"/>
						<polyline class="st40" points="584.8,368.3 588.3,368.4 589,371.8 						"/>
						<polyline class="st40" points="590.2,377.3 591,380.7 594.4,381 						"/>
						<polyline class="st44" points="601.6,381.6 650.8,385.9 655.3,387.6 						"/>
						<polyline class="st40" points="658.6,388.9 661.9,390.2 662.3,393.8 665.2,395.6 						"/>
						<polyline class="st45" points="669.7,401.4 671.7,406.1 675.8,411.2 677,412.5 679.2,413.8 704.6,414.6 						"/>
						<polyline class="st40" points="708.3,414.7 711.8,414.8 714.2,420 						"/>
					</g>
				</g>
			</g>
			<g>
				<path class="st46" d="M60.2,20.1c0,1.2-1,2.3-2.3,2.3c-1.2,0-2.3-1-2.3-2.3s1-2.3,2.3-2.3C59.2,17.9,60.2,18.9,60.2,20.1z"/>
				<path class="st46" d="M81.2,210.4c0,1.2-1,2.3-2.3,2.3c-1.2,0-2.3-1-2.3-2.3s1-2.3,2.3-2.3C80.2,208.1,81.2,209.1,81.2,210.4z"
					/>
				<path class="st46" d="M116.9,215.2c0,1.2-1,2.3-2.3,2.3s-2.3-1-2.3-2.3s1-2.3,2.3-2.3S116.9,213.9,116.9,215.2z"/>
				<path class="st46" d="M121.8,215.3c0,1.2-1,2.3-2.3,2.3s-2.3-1-2.3-2.3s1-2.3,2.3-2.3S121.8,214.1,121.8,215.3z"/>
				<path class="st46" d="M261.9,216.6c0,1.2-1,2.3-2.3,2.3c-1.2,0-2.3-1-2.3-2.3s1-2.3,2.3-2.3
					C260.9,214.4,261.9,215.4,261.9,216.6z"/>
				<path class="st46" d="M310.9,218.3c0,1.2-1,2.3-2.3,2.3s-2.3-1-2.3-2.3s1-2.3,2.3-2.3S310.9,217,310.9,218.3z"/>
				<path class="st46" d="M354.9,220c0,1.2-1,2.3-2.3,2.3s-2.3-1-2.3-2.3s1-2.3,2.3-2.3S354.9,218.8,354.9,220z"/>
				<path class="st46" d="M369.6,234.3c0,1.2-1,2.3-2.3,2.3s-2.3-1-2.3-2.3s1-2.3,2.3-2.3S369.6,233,369.6,234.3z"/>
				<path class="st46" d="M395.9,267.9c0,1.2-1,2.3-2.3,2.3s-2.3-1-2.3-2.3s1-2.3,2.3-2.3S395.9,266.6,395.9,267.9z"/>
				<path class="st46" d="M405.1,350.2c0,1.2-1,2.3-2.3,2.3s-2.3-1-2.3-2.3s1-2.3,2.3-2.3S405.1,349,405.1,350.2z"/>
				<path class="st46" d="M406,351.8c0,1.2-1,2.3-2.3,2.3s-2.3-1-2.3-2.3s1-2.3,2.3-2.3S406,350.5,406,351.8z"/>
				<path class="st46" d="M406.1,351.9c0,1.2-1,2.3-2.3,2.3s-2.3-1-2.3-2.3s1-2.3,2.3-2.3S406.1,350.7,406.1,351.9z"/>
				<path class="st46" d="M406.4,362.8c0,1.2-1,2.3-2.3,2.3s-2.3-1-2.3-2.3s1-2.3,2.3-2.3S406.4,361.5,406.4,362.8z"/>
				<path class="st46" d="M590.5,368.4c0,1.2-1,2.3-2.3,2.3s-2.3-1-2.3-2.3s1-2.3,2.3-2.3S590.5,367.2,590.5,368.4z"/>
				<path class="st46" d="M593.2,380.7c0,1.2-1,2.3-2.3,2.3s-2.3-1-2.3-2.3s1-2.3,2.3-2.3S593.2,379.5,593.2,380.7z"/>
				<path class="st46" d="M653.1,385.9c0,1.2-1,2.3-2.3,2.3s-2.3-1-2.3-2.3s1-2.3,2.3-2.3S653.1,384.6,653.1,385.9z"/>
				<path class="st46" d="M664.1,390.2c0,1.2-1,2.3-2.3,2.3s-2.3-1-2.3-2.3s1-2.3,2.3-2.3S664.1,389,664.1,390.2z"/>
				<path class="st46" d="M664.5,393.8c0,1.2-1,2.3-2.3,2.3s-2.3-1-2.3-2.3s1-2.3,2.3-2.3S664.5,392.6,664.5,393.8z"/>
				<path class="st46" d="M668,395.9c0,1.2-1,2.3-2.3,2.3s-2.3-1-2.3-2.3s1-2.3,2.3-2.3S668,394.7,668,395.9z"/>
				<path class="st46" d="M668.4,396.6c0,1.2-1,2.3-2.3,2.3s-2.3-1-2.3-2.3s1-2.3,2.3-2.3S668.4,395.4,668.4,396.6z"/>
				<path class="st46" d="M670.6,398.2c0,1.2-1,2.3-2.3,2.3s-2.3-1-2.3-2.3s1-2.3,2.3-2.3S670.6,397,670.6,398.2z"/>
				<path class="st46" d="M673.9,406.1c0,1.2-1,2.3-2.3,2.3s-2.3-1-2.3-2.3s1-2.3,2.3-2.3S673.9,404.8,673.9,406.1z"/>
				<path class="st46" d="M673.9,406.1c0,1.2-1,2.3-2.3,2.3s-2.3-1-2.3-2.3s1-2.3,2.3-2.3S673.9,404.9,673.9,406.1z"/>
				<path class="st46" d="M678.1,411.2c0,1.2-1,2.3-2.3,2.3s-2.3-1-2.3-2.3s1-2.3,2.3-2.3S678.1,409.9,678.1,411.2z"/>
				<path class="st46" d="M678.8,412.5c0,1.2-1,2.3-2.3,2.3s-2.3-1-2.3-2.3s1-2.3,2.3-2.3S678.8,411.3,678.8,412.5z"/>
				<path class="st46" d="M679.3,412.5c0,1.2-1,2.3-2.3,2.3s-2.3-1-2.3-2.3s1-2.3,2.3-2.3S679.3,411.3,679.3,412.5z"/>
				<path class="st46" d="M681.5,413.8c0,1.2-1,2.3-2.3,2.3s-2.3-1-2.3-2.3s1-2.3,2.3-2.3S681.5,412.5,681.5,413.8z"/>
				<path class="st46" d="M714.1,414.8c0,1.2-1,2.3-2.3,2.3s-2.3-1-2.3-2.3s1-2.3,2.3-2.3S714.1,413.6,714.1,414.8z"/>
				<path class="st46" d="M716.5,420c0,1.2-1,2.3-2.3,2.3s-2.3-1-2.3-2.3s1-2.3,2.3-2.3S716.5,418.8,716.5,420z"/>
			</g>
		</g>
	</g>
	<path class="st47" d="M51,420.5h763"/>
	<path class="st47" d="M51.5,0v420"/>
	<g>
		<g>
			<text transform="matrix(1 0 0 1 69.0785 435.4)" class="st48 st49 st50">0.6</text>
		</g>
		<g>
			<text transform="matrix(1 0 0 1 158.7285 435.4)" class="st48 st49 st50">0.7</text>
		</g>
		<g>
			<text transform="matrix(1 0 0 1 248.3785 435.4)" class="st48 st49 st50">0.8</text>
		</g>
		<g>
			<text transform="matrix(1 0 0 1 338.0285 435.4)" class="st48 st49 st50">0.9</text>
		</g>
		<g>
			<text transform="matrix(1 0 0 1 433.6656 435.4)" class="st48 st49 st50">1</text>
		</g>
		<g>
			<text transform="matrix(1 0 0 1 517.3185 435.4)" class="st48 st49 st50">1.1</text>
		</g>
		<g>
			<text transform="matrix(1 0 0 1 606.9685 435.4)" class="st48 st49 st50">1.2</text>
		</g>
		<g>
			<text transform="matrix(1 0 0 1 696.6085 435.4)" class="st48 st49 st50">1.3</text>
		</g>
		<g>
			<text transform="matrix(1 0 0 1 786.2585 435.4)" class="st48 st49 st50">1.4</text>
		</g>
	</g>
	<g>
		<g>
			<text transform="matrix(1 0 0 1 40.9711 424.2)" class="st48 st49 st50">0</text>
		</g>
		<g>
			<text transform="matrix(1 0 0 1 33.3422 372.98)" class="st48 st49 st50">10</text>
		</g>
		<g>
			<text transform="matrix(1 0 0 1 33.3422 321.76)" class="st48 st49 st50">20</text>
		</g>
		<g>
			<text transform="matrix(1 0 0 1 33.3422 270.54)" class="st48 st49 st50">30</text>
		</g>
		<g>
			<text transform="matrix(1 0 0 1 33.3422 219.32)" class="st48 st49 st50">40</text>
		</g>
		<g>
			<text transform="matrix(1 0 0 1 33.3422 168.1)" class="st48 st49 st50">50</text>
		</g>
		<g>
			<text transform="matrix(1 0 0 1 33.3422 116.88)" class="st48 st49 st50">60</text>
		</g>
		<g>
			<text transform="matrix(1 0 0 1 33.3422 65.66)" class="st48 st49 st50">70</text>
		</g>
		<g>
			<text transform="matrix(1 0 0 1 33.3422 14.44)" class="st48 st49 st50">80</text>
		</g>
	</g>
</g>
<g>
	<g transform="translate(857.24, 100)" pointer-events="all">
		<rect x="-28" y="-100" shape-rendering="crispEdges" class="st51" width="131" height="390"/>
		<g>
			<defs>
				<rect id="SVGID_3_" x="-28" y="-100" width="131" height="390"/>
			</defs>
			<clipPath id="SVGID_4_">
				<use xlink:href="#SVGID_3_"  style="overflow:visible;"/>
			</clipPath>
			<g transform="translate(0, 0)" class="st52">
				<g>
					<g transform="translate(0, 14.5)">
						<text transform="matrix(1 0 0 1 12 -95.32)" class="st48 st49 st50">MOEAD</text>
						<rect x="-28" y="-109.5" pointer-events="all" class="st53" width="171" height="19"/>
						<g>
							<g>
								<path class="st54" d="M-23-100H7"/>
							</g>
							<g>
								<g>
									<path class="st3" d="M-6.3-100c0,1-0.8,1.8-1.8,1.8S-9.8-99-9.8-100s0.8-1.8,1.8-1.8S-6.3-101-6.3-100z"/>
								</g>
							</g>
						</g>
					</g>
					<g transform="translate(0, 33.5)">
						<text transform="matrix(1 0 0 1 12 -95.32)" class="st48 st49 st50">SPEA2</text>
						<rect x="-28" y="-109.5" pointer-events="all" class="st53" width="171" height="19"/>
						<g>
							<g>
								<path class="st55" d="M-23-100H7"/>
							</g>
							<g>
								<g>
									<path class="st5" d="M-6.3-100c0,1-0.8,1.8-1.8,1.8S-9.8-99-9.8-100s0.8-1.8,1.8-1.8S-6.3-101-6.3-100z"/>
								</g>
							</g>
						</g>
					</g>
					<g transform="translate(0, 52.5)">
						<text transform="matrix(1 0 0 1 12 -95.32)" class="st48 st49 st50">NSGAII</text>
						<rect x="-28" y="-109.5" pointer-events="all" class="st53" width="171" height="19"/>
						<g>
							<g>
								<path class="st56" d="M-23-100H7"/>
							</g>
							<g>
								<g>
									<path class="st7" d="M-6.3-100c0,1-0.8,1.8-1.8,1.8S-9.8-99-9.8-100s0.8-1.8,1.8-1.8S-6.3-101-6.3-100z"/>
								</g>
							</g>
						</g>
					</g>
					<g transform="translate(0, 71.5)">
						<text transform="matrix(1 0 0 1 12 -95.32)" class="st48 st49 st50">OMOPSO</text>
						<rect x="-28" y="-109.5" pointer-events="all" class="st53" width="171" height="19"/>
						<g>
							<g>
								<path class="st57" d="M-23-100H7"/>
							</g>
							<g>
								<g>
									<path class="st9" d="M-6.3-100c0,1-0.8,1.8-1.8,1.8S-9.8-99-9.8-100s0.8-1.8,1.8-1.8S-6.3-101-6.3-100z"/>
								</g>
							</g>
						</g>
					</g>
					<g transform="translate(0, 90.5)">
						<text transform="matrix(1 0 0 1 12 -95.32)" class="st48 st49 st50">SMPSO</text>
						<rect x="-28" y="-109.5" pointer-events="all" class="st53" width="171" height="19"/>
						<g>
							<g>
								<path class="st58" d="M-23-100H7"/>
							</g>
							<g>
								<g>
									<path class="st11" d="M-6.3-100c0,1-0.8,1.8-1.8,1.8S-9.8-99-9.8-100s0.8-1.8,1.8-1.8S-6.3-101-6.3-100z"/>
								</g>
							</g>
						</g>
					</g>
					<g transform="translate(0, 109.5)">
						<text transform="matrix(1 0 0 1 12 -95.32)" class="st48 st49 st50">PESA2</text>
						<rect x="-28" y="-109.5" pointer-events="all" class="st53" width="171" height="19"/>
						<g>
							<g>
								<path class="st59" d="M-23-100H7"/>
							</g>
							<g>
								<g>
									<path class="st13" d="M-6.3-100c0,1-0.8,1.8-1.8,1.8S-9.8-99-9.8-100s0.8-1.8,1.8-1.8S-6.3-101-6.3-100z"/>
								</g>
							</g>
						</g>
					</g>
					<g transform="translate(0, 128.5)">
						<text transform="matrix(1 0 0 1 12 -95.32)" class="st48 st49 st50">PAES</text>
						<rect x="-28" y="-109.5" pointer-events="all" class="st53" width="171" height="19"/>
						<g>
							<g>
								<path class="st60" d="M-23-100H7"/>
							</g>
							<g>
								<g>
									<path class="st15" d="M-6.3-100c0,1-0.8,1.8-1.8,1.8S-9.8-99-9.8-100s0.8-1.8,1.8-1.8S-6.3-101-6.3-100z"/>
								</g>
							</g>
						</g>
					</g>
					<g transform="translate(0, 147.5)">
						<text transform="matrix(1 0 0 1 12 -95.32)" class="st48 st49 st50">EpsMOEA</text>
						<rect x="-28" y="-109.5" pointer-events="all" class="st53" width="171" height="19"/>
						<g>
							<g>
								<path class="st61" d="M-23-100H7"/>
							</g>
							<g>
								<g>
									<path class="st17" d="M-6.3-100c0,1-0.8,1.8-1.8,1.8S-9.8-99-9.8-100s0.8-1.8,1.8-1.8S-6.3-101-6.3-100z"/>
								</g>
							</g>
						</g>
					</g>
					<g transform="translate(0, 166.5)">
						<text transform="matrix(1 0 0 1 12 -95.32)" class="st48 st49 st50">GDE3</text>
						<rect x="-28" y="-109.5" pointer-events="all" class="st53" width="171" height="19"/>
						<g>
							<g>
								<path class="st62" d="M-23-100H7"/>
							</g>
							<g>
								<g>
									<path class="st19" d="M-6.3-100c0,1-0.8,1.8-1.8,1.8S-9.8-99-9.8-100s0.8-1.8,1.8-1.8S-6.3-101-6.3-100z"/>
								</g>
							</g>
						</g>
					</g>
					<g transform="translate(0, 185.5)">
						<text transform="matrix(1 0 0 1 12 -95.32)" class="st48 st49 st50">CMAES</text>
						<rect x="-28" y="-109.5" pointer-events="all" class="st53" width="171" height="19"/>
						<g>
							<g>
								<path class="st63" d="M-23-100H7"/>
							</g>
							<g>
								<g>
									<path class="st21" d="M-6.3-100c0,1-0.8,1.8-1.8,1.8S-9.8-99-9.8-100s0.8-1.8,1.8-1.8S-6.3-101-6.3-100z"/>
								</g>
							</g>
						</g>
					</g>
					<g transform="translate(0, 204.5)">
						<text transform="matrix(1 0 0 1 12 -95.32)" class="st48 st49 st50">GPR_NSGAII</text>
						<rect x="-28" y="-109.5" pointer-events="all" class="st53" width="171" height="19"/>
						<g>
							<g>
								<path class="st64" d="M-23-100H7"/>
							</g>
							<g>
								<g>
									<path class="st23" d="M-6.3-100c0,1-0.8,1.8-1.8,1.8S-9.8-99-9.8-100s0.8-1.8,1.8-1.8S-6.3-101-6.3-100z"/>
								</g>
							</g>
						</g>
					</g>
					<g transform="translate(0, 223.5)">
						<text transform="matrix(1 0 0 1 12 -95.32)" class="st48 st49 st50">GPR_Random</text>
						<rect x="-28" y="-109.5" pointer-events="all" class="st53" width="171" height="19"/>
						<g>
							<g>
								<path class="st65" d="M-23-100H7"/>
							</g>
							<g>
								<g>
									<path class="st25" d="M-6.3-100c0,1-0.8,1.8-1.8,1.8S-9.8-99-9.8-100s0.8-1.8,1.8-1.8S-6.3-101-6.3-100z"/>
								</g>
							</g>
						</g>
					</g>
					<g transform="translate(0, 242.5)">
						<text transform="matrix(1 0 0 1 12 -95.32)" class="st48 st49 st50">GPR_SMPSO</text>
						<rect x="-28" y="-109.5" pointer-events="all" class="st53" width="171" height="19"/>
						<g>
							<g>
								<path class="st66" d="M-23-100H7"/>
							</g>
							<g>
								<g>
									<path class="st27" d="M-6.3-100c0,1-0.8,1.8-1.8,1.8S-9.8-99-9.8-100s0.8-1.8,1.8-1.8S-6.3-101-6.3-100z"/>
								</g>
							</g>
						</g>
					</g>
					<g transform="translate(0, 261.5)">
						<text transform="matrix(1 0 0 1 12 -95.32)" class="st48 st49 st50">RF_NSGAII</text>
						<rect x="-28" y="-109.5" pointer-events="all" class="st53" width="171" height="19"/>
						<g>
							<g>
								<path class="st67" d="M-23-100H7"/>
							</g>
							<g>
								<g>
									<path class="st29" d="M-6.3-100c0,1-0.8,1.8-1.8,1.8S-9.8-99-9.8-100s0.8-1.8,1.8-1.8S-6.3-101-6.3-100z"/>
								</g>
							</g>
						</g>
					</g>
					<g transform="translate(0, 280.5)">
						<text transform="matrix(1 0 0 1 12 -95.32)" class="st48 st49 st50">RF_Random</text>
						<rect x="-28" y="-109.5" pointer-events="all" class="st53" width="171" height="19"/>
						<g>
							<g>
								<path class="st68" d="M-23-100H7"/>
							</g>
							<g>
								<g>
									<path class="st31" d="M-6.3-100c0,1-0.8,1.8-1.8,1.8S-9.8-99-9.8-100s0.8-1.8,1.8-1.8S-6.3-101-6.3-100z"/>
								</g>
							</g>
						</g>
					</g>
					<g transform="translate(0, 299.5)">
						<text transform="matrix(1 0 0 1 12 -95.32)" class="st48 st49 st50">RF_SMPSO</text>
						<rect x="-28" y="-109.5" pointer-events="all" class="st53" width="171" height="19"/>
						<g>
							<g>
								<path class="st69" d="M-23-100H7"/>
							</g>
							<g>
								<g>
									<path class="st33" d="M-6.3-100c0,1-0.8,1.8-1.8,1.8S-9.8-99-9.8-100s0.8-1.8,1.8-1.8S-6.3-101-6.3-100z"/>
								</g>
							</g>
						</g>
					</g>
					<g transform="translate(0, 318.5)">
						<text transform="matrix(1 0 0 1 12 -95.32)" class="st48 st49 st50">MLP_NSGAII</text>
						<rect x="-28" y="-109.5" pointer-events="all" class="st53" width="171" height="19"/>
						<g>
							<g>
								<path class="st70" d="M-23-100H7"/>
							</g>
							<g>
								<g>
									<path class="st35" d="M-6.3-100c0,1-0.8,1.8-1.8,1.8S-9.8-99-9.8-100s0.8-1.8,1.8-1.8S-6.3-101-6.3-100z"/>
								</g>
							</g>
						</g>
					</g>
					<g transform="translate(0, 337.5)">
						<text transform="matrix(1 0 0 1 12 -95.32)" class="st48 st49 st50">MLP_Random</text>
						<rect x="-28" y="-109.5" pointer-events="all" class="st53" width="171" height="19"/>
						<g>
							<g>
								<path class="st71" d="M-23-100H7"/>
							</g>
							<g>
								<g>
									<path class="st37" d="M-6.3-100c0,1-0.8,1.8-1.8,1.8S-9.8-99-9.8-100s0.8-1.8,1.8-1.8S-6.3-101-6.3-100z"/>
								</g>
							</g>
						</g>
					</g>
					<g transform="translate(0, 356.5)">
						<text transform="matrix(1 0 0 1 12 -95.32)" class="st48 st49 st50">MLP_SMPSO</text>
						<rect x="-28" y="-109.5" pointer-events="all" class="st53" width="171" height="19"/>
						<g>
							<g>
								<path class="st72" d="M-23-100H7"/>
							</g>
							<g>
								<g>
									<path class="st39" d="M-6.3-100c0,1-0.8,1.8-1.8,1.8S-9.8-99-9.8-100s0.8-1.8,1.8-1.8S-6.3-101-6.3-100z"/>
								</g>
							</g>
						</g>
					</g>
					<text transform="matrix(1 0 0 1 12 280.18)" class="st48 st49 st50">All Algorithms</text>
					<rect x="-28" y="266" pointer-events="all" class="st53" width="171" height="19"/>
					<g>
						<path class="st73" d="M-23,275.5H7"/>
					</g>
					<g>
						<g>
							<path class="st74" d="M-5.8,275.5c0,1.2-1,2.3-2.3,2.3s-2.3-1-2.3-2.3s1-2.3,2.3-2.3S-5.8,274.3-5.8,275.5z"/>
						</g>
					</g>
				</g>
			</g>
		</g>
		<polygon class="st75" points="-28,-100 -28,-100 -28,-100 -28,-100 -28,-100 -28,-100 -28,-100 -28,-100 		"/>
	</g>
	<g>
		<text transform="matrix(1 0 0 1 348.894 472)" class="st48 st49 st76">Maximum Displacement</text>
	</g>
	<g>
		<text transform="matrix(6.123234e-17 -1 1 6.123234e-17 14 276.1408)" class="st48 st49 st76">Euclidean Distance</text>
	</g>
</g>
</svg>
